<?xml version="1.0" encoding="UTF-8" standalone="no"?>
<!-- Created with Inkscape (http://www.inkscape.org/) -->

<svg
   width="11in"
   height="3.5in"
   viewBox="0 0 279.4 88.900011"
   version="1.1"
   id="svg5"
   inkscape:version="1.2.2 (b0a8486, 2022-12-01)"
   sodipodi:docname="PIMC_grid_N=2.svg"
   xmlns:inkscape="http://www.inkscape.org/namespaces/inkscape"
   xmlns:sodipodi="http://sodipodi.sourceforge.net/DTD/sodipodi-0.dtd"
   xmlns="http://www.w3.org/2000/svg"
   xmlns:svg="http://www.w3.org/2000/svg"
   xmlns:ns4="http://www.iki.fi/pav/software/textext/">
  <sodipodi:namedview
     id="namedview7"
     pagecolor="#ffffff"
     bordercolor="#000000"
     borderopacity="0.25"
     inkscape:showpageshadow="2"
     inkscape:pageopacity="0.0"
     inkscape:pagecheckerboard="0"
     inkscape:deskcolor="#d1d1d1"
     inkscape:document-units="mm"
     showgrid="true"
     inkscape:zoom="1.9795277"
     inkscape:cx="441.26687"
     inkscape:cy="230.61056"
     inkscape:window-width="2048"
     inkscape:window-height="1099"
     inkscape:window-x="0"
     inkscape:window-y="25"
     inkscape:window-maximized="0"
     inkscape:current-layer="g1841">
    <inkscape:grid
       type="xygrid"
       id="grid4565"
       originx="-117.84177"
       originy="-10.471378" />
  </sodipodi:namedview>
  <defs
     id="defs2">
    <linearGradient
       id="linearGradient164425">
      <stop
         style="stop-color:#000000;stop-opacity:1;"
         offset="0.46255752"
         id="stop230217" />
      <stop
         style="stop-color:#ffffff;stop-opacity:1;"
         offset="0.86397481"
         id="stop230219" />
    </linearGradient>
    <g
       id="id-4dde7873-3ecd-4f8f-9d02-e63beacfa779">
      <symbol
         overflow="visible"
         id="id-83a142f7-971e-491d-94d4-0dda3fdeeb46">
        <path
           style="stroke:none;stroke-width:0"
           d=""
           id="id-8ebd05d8-010c-494c-93ad-ce9bc71811ab" />
      </symbol>
      <symbol
         overflow="visible"
         id="id-b5172af3-7873-4151-9e6e-66a3cfe4c085">
        <path
           style="stroke:none;stroke-width:0"
           d="m 1.578125,-7.125 c 0,-0.171875 0,-0.359375 -0.1875,-0.359375 -0.203125,0 -0.203125,0.1875 -0.203125,0.359375 v 9.265625 c 0,0.171875 0,0.359375 0.203125,0.359375 0.1875,0 0.1875,-0.1875 0.1875,-0.359375 z m 0,0"
           id="id-ed216066-dc88-43a3-997a-e913a8b6f2c1" />
      </symbol>
      <symbol
         overflow="visible"
         id="id-40036366-2dc7-4c1a-8407-82b9c21d25e3">
        <path
           style="stroke:none;stroke-width:0"
           d="M 2.71875,-2.328125 C 2.765625,-2.4375 2.765625,-2.46875 2.765625,-2.5 c 0,-0.015625 0,-0.046875 -0.046875,-0.15625 L 0.984375,-7.25 c -0.0625,-0.171875 -0.125,-0.234375 -0.234375,-0.234375 -0.109375,0 -0.203125,0.09375 -0.203125,0.203125 0,0.03125 0,0.046875 0.046875,0.15625 L 2.359375,-2.5 0.59375,2.109375 C 0.546875,2.21875 0.546875,2.25 0.546875,2.296875 0.546875,2.40625 0.640625,2.5 0.75,2.5 0.875,2.5 0.921875,2.390625 0.953125,2.296875 Z m 0,0"
           id="id-38431aca-ea16-4d1d-a1db-f85ed12f77c4" />
      </symbol>
      <symbol
         overflow="visible"
         id="id-a6ac5d5d-cd0e-4307-b6a5-742c07a07086">
        <path
           style="stroke:none;stroke-width:0"
           d=""
           id="id-602b6564-f996-431e-b7ad-4d48c595535c" />
      </symbol>
      <symbol
         overflow="visible"
         id="id-5cd861b8-41fb-4144-8d31-420434b0e406">
        <path
           style="stroke:none;stroke-width:0"
           d="m 0.875,-0.59375 c -0.03125,0.15625 -0.09375,0.390625 -0.09375,0.4375 0,0.171875 0.140625,0.265625 0.296875,0.265625 0.125,0 0.296875,-0.078125 0.375,-0.28125 0,-0.015625 0.125,-0.484375 0.1875,-0.734375 l 0.21875,-0.890625 C 1.90625,-2.03125 1.96875,-2.25 2.03125,-2.46875 c 0.03125,-0.171875 0.109375,-0.46875 0.125,-0.5 0.140625,-0.3125 0.671875,-1.21875 1.625,-1.21875 0.453125,0 0.53125,0.375 0.53125,0.703125 0,0.25 -0.0625,0.53125 -0.140625,0.828125 L 3.890625,-1.5 3.6875,-0.75 c -0.03125,0.203125 -0.125,0.546875 -0.125,0.59375 0,0.171875 0.140625,0.265625 0.28125,0.265625 0.3125,0 0.375,-0.25 0.453125,-0.5625 0.140625,-0.5625 0.515625,-2.015625 0.59375,-2.40625 0.03125,-0.125 0.5625,-1.328125 1.65625,-1.328125 0.421875,0 0.53125,0.34375 0.53125,0.703125 0,0.5625 -0.421875,1.703125 -0.625,2.234375 -0.078125,0.234375 -0.125,0.34375 -0.125,0.546875 0,0.46875 0.34375,0.8125 0.8125,0.8125 0.9375,0 1.3125,-1.453125 1.3125,-1.53125 0,-0.109375 -0.09375,-0.109375 -0.125,-0.109375 -0.09375,0 -0.09375,0.03125 -0.140625,0.1875 -0.15625,0.53125 -0.46875,1.234375 -1.015625,1.234375 -0.171875,0 -0.25,-0.09375 -0.25,-0.328125 0,-0.25 0.09375,-0.484375 0.1875,-0.703125 0.1875,-0.53125 0.609375,-1.625 0.609375,-2.203125 0,-0.640625 -0.40625,-1.0625 -1.15625,-1.0625 -0.734375,0 -1.25,0.4375 -1.625,0.96875 0,-0.125 -0.03125,-0.46875 -0.3125,-0.703125 -0.25,-0.21875 -0.5625,-0.265625 -0.8125,-0.265625 -0.90625,0 -1.390625,0.640625 -1.5625,0.875 -0.046875,-0.578125 -0.46875,-0.875 -0.921875,-0.875 -0.453125,0 -0.640625,0.390625 -0.734375,0.5625 -0.171875,0.359375 -0.296875,0.9375 -0.296875,0.96875 0,0.109375 0.09375,0.109375 0.109375,0.109375 0.109375,0 0.109375,-0.015625 0.171875,-0.234375 0.171875,-0.703125 0.375,-1.1875 0.734375,-1.1875 0.15625,0 0.296875,0.078125 0.296875,0.453125 0,0.21875 -0.03125,0.328125 -0.15625,0.84375 z m 0,0"
           id="id-d0280912-dbeb-41d7-8719-9ea20a248e9d" />
      </symbol>
      <symbol
         overflow="visible"
         id="id-8d9efa4f-9e1b-400b-be71-8d4b24e51699">
        <path
           style="stroke:none;stroke-width:0"
           d=""
           id="id-abc08559-f225-45b2-9679-3f1fbcd90dca" />
      </symbol>
      <symbol
         overflow="visible"
         id="id-fc80f3b0-0333-4815-909c-29fffeb27dd0">
        <path
           style="stroke:none;stroke-width:0"
           d="M 3,-1.59375 C 3,-1.953125 3,-3.3125 1.6875,-3.3125 c -1.296875,0 -1.296875,1.359375 -1.296875,1.71875 0,0.359375 0,1.703125 1.296875,1.703125 C 3,0.109375 3,-1.234375 3,-1.59375 Z M 1.6875,-0.0625 C 1.515625,-0.0625 1.09375,-0.125 0.96875,-0.625 0.890625,-0.890625 0.890625,-1.25 0.890625,-1.65625 c 0,-0.375 0,-0.71875 0.078125,-1 0.125,-0.421875 0.515625,-0.5 0.71875,-0.5 0.375,0 0.640625,0.1875 0.734375,0.546875 C 2.5,-2.359375 2.5,-1.953125 2.5,-1.65625 c 0,0.34375 0,0.75 -0.078125,1.046875 C 2.296875,-0.125 1.890625,-0.0625 1.6875,-0.0625 Z m 0,0"
           id="id-91cb34e9-e04b-4759-9570-7ecb75f6c9d7" />
      </symbol>
    </g>
    <g
       id="id-8a2fb26a-61a4-4584-a2f3-3d5e972e82a9">
      <symbol
         overflow="visible"
         id="id-dc85f415-17d8-4b63-b23f-039ec46d4d02">
        <path
           style="stroke:none"
           d=""
           id="id-07dae4df-9b20-4548-9d78-477ac41085fc" />
      </symbol>
      <symbol
         overflow="visible"
         id="id-b2010137-c0f1-41dd-8c9a-520456b6a8c6">
        <path
           style="stroke:none"
           d="m 1.578125,-7.125 c 0,-0.171875 0,-0.359375 -0.1875,-0.359375 -0.203125,0 -0.203125,0.1875 -0.203125,0.359375 v 9.265625 c 0,0.171875 0,0.359375 0.203125,0.359375 0.1875,0 0.1875,-0.1875 0.1875,-0.359375 z m 0,0"
           id="id-c67da17f-200c-4fff-8f5d-53d4d8335489" />
      </symbol>
      <symbol
         overflow="visible"
         id="id-f74cf6a5-1ff5-4e64-9058-fecc6fe41c5f">
        <path
           style="stroke:none"
           d="M 2.71875,-2.328125 C 2.765625,-2.4375 2.765625,-2.46875 2.765625,-2.5 c 0,-0.015625 0,-0.046875 -0.046875,-0.15625 L 0.984375,-7.25 c -0.0625,-0.171875 -0.125,-0.234375 -0.234375,-0.234375 -0.109375,0 -0.203125,0.09375 -0.203125,0.203125 0,0.03125 0,0.046875 0.046875,0.15625 L 2.359375,-2.5 0.59375,2.109375 C 0.546875,2.21875 0.546875,2.25 0.546875,2.296875 0.546875,2.40625 0.640625,2.5 0.75,2.5 0.875,2.5 0.921875,2.390625 0.953125,2.296875 Z m 0,0"
           id="id-20b9421b-48c1-4e20-9502-29892d3b9f5c" />
      </symbol>
      <symbol
         overflow="visible"
         id="id-d8f6fcac-76fc-4ea8-b2c8-7c691ab3f5f1">
        <path
           style="stroke:none"
           d=""
           id="id-64d310bc-b155-458d-9d8b-0b11c6e2a8ec" />
      </symbol>
      <symbol
         overflow="visible"
         id="id-e8f41aed-8945-4835-ab06-7f92adbf8342">
        <path
           style="stroke:none"
           d="m 0.875,-0.59375 c -0.03125,0.15625 -0.09375,0.390625 -0.09375,0.4375 0,0.171875 0.140625,0.265625 0.296875,0.265625 0.125,0 0.296875,-0.078125 0.375,-0.28125 0,-0.015625 0.125,-0.484375 0.1875,-0.734375 l 0.21875,-0.890625 C 1.90625,-2.03125 1.96875,-2.25 2.03125,-2.46875 c 0.03125,-0.171875 0.109375,-0.46875 0.125,-0.5 0.140625,-0.3125 0.671875,-1.21875 1.625,-1.21875 0.453125,0 0.53125,0.375 0.53125,0.703125 0,0.25 -0.0625,0.53125 -0.140625,0.828125 L 3.890625,-1.5 3.6875,-0.75 c -0.03125,0.203125 -0.125,0.546875 -0.125,0.59375 0,0.171875 0.140625,0.265625 0.28125,0.265625 0.3125,0 0.375,-0.25 0.453125,-0.5625 0.140625,-0.5625 0.515625,-2.015625 0.59375,-2.40625 0.03125,-0.125 0.5625,-1.328125 1.65625,-1.328125 0.421875,0 0.53125,0.34375 0.53125,0.703125 0,0.5625 -0.421875,1.703125 -0.625,2.234375 -0.078125,0.234375 -0.125,0.34375 -0.125,0.546875 0,0.46875 0.34375,0.8125 0.8125,0.8125 0.9375,0 1.3125,-1.453125 1.3125,-1.53125 0,-0.109375 -0.09375,-0.109375 -0.125,-0.109375 -0.09375,0 -0.09375,0.03125 -0.140625,0.1875 -0.15625,0.53125 -0.46875,1.234375 -1.015625,1.234375 -0.171875,0 -0.25,-0.09375 -0.25,-0.328125 0,-0.25 0.09375,-0.484375 0.1875,-0.703125 0.1875,-0.53125 0.609375,-1.625 0.609375,-2.203125 0,-0.640625 -0.40625,-1.0625 -1.15625,-1.0625 -0.734375,0 -1.25,0.4375 -1.625,0.96875 0,-0.125 -0.03125,-0.46875 -0.3125,-0.703125 -0.25,-0.21875 -0.5625,-0.265625 -0.8125,-0.265625 -0.90625,0 -1.390625,0.640625 -1.5625,0.875 -0.046875,-0.578125 -0.46875,-0.875 -0.921875,-0.875 -0.453125,0 -0.640625,0.390625 -0.734375,0.5625 -0.171875,0.359375 -0.296875,0.9375 -0.296875,0.96875 0,0.109375 0.09375,0.109375 0.109375,0.109375 0.109375,0 0.109375,-0.015625 0.171875,-0.234375 0.171875,-0.703125 0.375,-1.1875 0.734375,-1.1875 0.15625,0 0.296875,0.078125 0.296875,0.453125 0,0.21875 -0.03125,0.328125 -0.15625,0.84375 z m 0,0"
           id="id-f350c9b2-f912-4970-935e-4a972e86ec30" />
      </symbol>
      <symbol
         overflow="visible"
         id="id-1332cba8-a1a0-4604-940b-575188ed7a3a">
        <path
           style="stroke:none"
           d=""
           id="id-33f57751-657b-489a-a3bc-fabdb431c2b8" />
      </symbol>
      <symbol
         overflow="visible"
         id="id-6c16a741-66a2-4c32-a201-5fc449504f59">
        <path
           style="stroke:none"
           d="M 1.984375,-3.171875 C 1.984375,-3.3125 1.96875,-3.3125 1.796875,-3.3125 1.453125,-3 0.890625,-3 0.796875,-3 H 0.71875 v 0.21875 h 0.078125 c 0.109375,0 0.4375,-0.015625 0.734375,-0.140625 v 2.5 c 0,0.140625 0,0.203125 -0.53125,0.203125 H 0.75 V 0 c 0.265625,-0.015625 0.71875,-0.015625 1,-0.015625 0.296875,0 0.734375,0 1.015625,0.015625 v -0.21875 h -0.25 c -0.53125,0 -0.53125,-0.0625 -0.53125,-0.203125 z m 0,0"
           id="id-5b9e690e-9003-40c9-94ea-81bec1bf4060" />
      </symbol>
    </g>
    <g
       id="id-6e20f08f-8653-40cd-a6d0-e4c7c01afff9">
      <symbol
         overflow="visible"
         id="id-47708c08-f799-4874-85be-9e4289d9968f">
        <path
           style="stroke:none"
           d=""
           id="id-28ca2168-8df0-4f35-a57a-adf31960191d" />
      </symbol>
      <symbol
         overflow="visible"
         id="id-934cfeef-4170-4924-b64b-ead57bfb1972">
        <path
           style="stroke:none"
           d="m 1.578125,-7.125 c 0,-0.171875 0,-0.359375 -0.1875,-0.359375 -0.203125,0 -0.203125,0.1875 -0.203125,0.359375 v 9.265625 c 0,0.171875 0,0.359375 0.203125,0.359375 0.1875,0 0.1875,-0.1875 0.1875,-0.359375 z m 0,0"
           id="id-b3c8ce27-18b0-4434-ae7e-055d009a793f" />
      </symbol>
      <symbol
         overflow="visible"
         id="id-51b5b966-9e0a-4c85-a2d7-34827119823d">
        <path
           style="stroke:none"
           d="M 2.71875,-2.328125 C 2.765625,-2.4375 2.765625,-2.46875 2.765625,-2.5 c 0,-0.015625 0,-0.046875 -0.046875,-0.15625 L 0.984375,-7.25 c -0.0625,-0.171875 -0.125,-0.234375 -0.234375,-0.234375 -0.109375,0 -0.203125,0.09375 -0.203125,0.203125 0,0.03125 0,0.046875 0.046875,0.15625 L 2.359375,-2.5 0.59375,2.109375 C 0.546875,2.21875 0.546875,2.25 0.546875,2.296875 0.546875,2.40625 0.640625,2.5 0.75,2.5 0.875,2.5 0.921875,2.390625 0.953125,2.296875 Z m 0,0"
           id="id-0e07939f-d12d-46c3-a16f-82a2e6e98671" />
      </symbol>
      <symbol
         overflow="visible"
         id="id-6f1be326-a68a-4e92-aa30-3fb1119da3b9">
        <path
           style="stroke:none"
           d=""
           id="id-93ce77ef-7aa1-438d-9c7c-e03e6f5e7f74" />
      </symbol>
      <symbol
         overflow="visible"
         id="id-20ac2dcf-8ced-44b9-a60f-92e6320399a8">
        <path
           style="stroke:none"
           d="m 0.875,-0.59375 c -0.03125,0.15625 -0.09375,0.390625 -0.09375,0.4375 0,0.171875 0.140625,0.265625 0.296875,0.265625 0.125,0 0.296875,-0.078125 0.375,-0.28125 0,-0.015625 0.125,-0.484375 0.1875,-0.734375 l 0.21875,-0.890625 C 1.90625,-2.03125 1.96875,-2.25 2.03125,-2.46875 c 0.03125,-0.171875 0.109375,-0.46875 0.125,-0.5 0.140625,-0.3125 0.671875,-1.21875 1.625,-1.21875 0.453125,0 0.53125,0.375 0.53125,0.703125 0,0.25 -0.0625,0.53125 -0.140625,0.828125 L 3.890625,-1.5 3.6875,-0.75 c -0.03125,0.203125 -0.125,0.546875 -0.125,0.59375 0,0.171875 0.140625,0.265625 0.28125,0.265625 0.3125,0 0.375,-0.25 0.453125,-0.5625 0.140625,-0.5625 0.515625,-2.015625 0.59375,-2.40625 0.03125,-0.125 0.5625,-1.328125 1.65625,-1.328125 0.421875,0 0.53125,0.34375 0.53125,0.703125 0,0.5625 -0.421875,1.703125 -0.625,2.234375 -0.078125,0.234375 -0.125,0.34375 -0.125,0.546875 0,0.46875 0.34375,0.8125 0.8125,0.8125 0.9375,0 1.3125,-1.453125 1.3125,-1.53125 0,-0.109375 -0.09375,-0.109375 -0.125,-0.109375 -0.09375,0 -0.09375,0.03125 -0.140625,0.1875 -0.15625,0.53125 -0.46875,1.234375 -1.015625,1.234375 -0.171875,0 -0.25,-0.09375 -0.25,-0.328125 0,-0.25 0.09375,-0.484375 0.1875,-0.703125 0.1875,-0.53125 0.609375,-1.625 0.609375,-2.203125 0,-0.640625 -0.40625,-1.0625 -1.15625,-1.0625 -0.734375,0 -1.25,0.4375 -1.625,0.96875 0,-0.125 -0.03125,-0.46875 -0.3125,-0.703125 -0.25,-0.21875 -0.5625,-0.265625 -0.8125,-0.265625 -0.90625,0 -1.390625,0.640625 -1.5625,0.875 -0.046875,-0.578125 -0.46875,-0.875 -0.921875,-0.875 -0.453125,0 -0.640625,0.390625 -0.734375,0.5625 -0.171875,0.359375 -0.296875,0.9375 -0.296875,0.96875 0,0.109375 0.09375,0.109375 0.109375,0.109375 0.109375,0 0.109375,-0.015625 0.171875,-0.234375 0.171875,-0.703125 0.375,-1.1875 0.734375,-1.1875 0.15625,0 0.296875,0.078125 0.296875,0.453125 0,0.21875 -0.03125,0.328125 -0.15625,0.84375 z m 0,0"
           id="id-ff6b048e-08c9-482f-a3d5-fa0d964a7019" />
      </symbol>
      <symbol
         overflow="visible"
         id="id-ffef7ed7-481e-4d76-98f6-fa2cb8999a3d">
        <path
           style="stroke:none"
           d=""
           id="id-a93c196a-f310-4260-9331-3301e8d7d379" />
      </symbol>
      <symbol
         overflow="visible"
         id="id-273cafd5-edfa-4cf4-9b0f-d182f9d9174d">
        <path
           style="stroke:none"
           d="M 2.9375,-0.96875 H 2.71875 c 0,0.09375 -0.0625,0.40625 -0.140625,0.453125 -0.03125,0.03125 -0.453125,0.03125 -0.53125,0.03125 H 1.078125 C 1.40625,-0.71875 1.765625,-1 2.0625,-1.203125 c 0.453125,-0.3125 0.875,-0.59375 0.875,-1.125 0,-0.640625 -0.609375,-0.984375 -1.3125,-0.984375 -0.671875,0 -1.171875,0.375 -1.171875,0.875 0,0.25 0.21875,0.296875 0.296875,0.296875 0.125,0 0.28125,-0.09375 0.28125,-0.296875 0,-0.171875 -0.125,-0.28125 -0.28125,-0.28125 0.140625,-0.234375 0.4375,-0.375 0.765625,-0.375 0.484375,0 0.890625,0.28125 0.890625,0.765625 0,0.421875 -0.296875,0.75 -0.671875,1.0625 l -1.21875,1.03125 C 0.46875,-0.1875 0.453125,-0.1875 0.453125,-0.15625 V 0 h 2.3125 z m 0,0"
           id="id-c445fe6d-32ca-4790-9a54-beb8efd208a6" />
      </symbol>
    </g>
    <g
       id="id-66a06e0e-72bc-4712-a6d6-4f2e81a743b8">
      <symbol
         overflow="visible"
         id="id-dcb2088a-ec82-4e19-a92d-04e6d1b34ef9">
        <path
           style="stroke:none"
           d=""
           id="id-eed60e12-0b8d-4b5d-8314-a4a8875373aa" />
      </symbol>
      <symbol
         overflow="visible"
         id="id-d35d52f4-cf70-4e99-ae54-c0a6f51aef2d">
        <path
           style="stroke:none"
           d="m 1.578125,-7.125 c 0,-0.171875 0,-0.359375 -0.1875,-0.359375 -0.203125,0 -0.203125,0.1875 -0.203125,0.359375 v 9.265625 c 0,0.171875 0,0.359375 0.203125,0.359375 0.1875,0 0.1875,-0.1875 0.1875,-0.359375 z m 0,0"
           id="id-583402f1-1f0b-407c-a7ea-73550ede3dbf" />
      </symbol>
      <symbol
         overflow="visible"
         id="id-aef97980-389d-4af9-a232-a638d21534ed">
        <path
           style="stroke:none"
           d="M 2.71875,-2.328125 C 2.765625,-2.4375 2.765625,-2.46875 2.765625,-2.5 c 0,-0.015625 0,-0.046875 -0.046875,-0.15625 L 0.984375,-7.25 c -0.0625,-0.171875 -0.125,-0.234375 -0.234375,-0.234375 -0.109375,0 -0.203125,0.09375 -0.203125,0.203125 0,0.03125 0,0.046875 0.046875,0.15625 L 2.359375,-2.5 0.59375,2.109375 C 0.546875,2.21875 0.546875,2.25 0.546875,2.296875 0.546875,2.40625 0.640625,2.5 0.75,2.5 0.875,2.5 0.921875,2.390625 0.953125,2.296875 Z m 0,0"
           id="id-3ddc470e-025d-434f-9f79-a2c125f652df" />
      </symbol>
      <symbol
         overflow="visible"
         id="id-918652eb-0d09-4701-b75b-31b66bc3b11f">
        <path
           style="stroke:none"
           d=""
           id="id-eb4919fb-6e43-494b-9ff8-4037fd519927" />
      </symbol>
      <symbol
         overflow="visible"
         id="id-4635ebb4-0b17-40f2-82e3-ec77c88be8a1">
        <path
           style="stroke:none"
           d="m 0.875,-0.59375 c -0.03125,0.15625 -0.09375,0.390625 -0.09375,0.4375 0,0.171875 0.140625,0.265625 0.296875,0.265625 0.125,0 0.296875,-0.078125 0.375,-0.28125 0,-0.015625 0.125,-0.484375 0.1875,-0.734375 l 0.21875,-0.890625 C 1.90625,-2.03125 1.96875,-2.25 2.03125,-2.46875 c 0.03125,-0.171875 0.109375,-0.46875 0.125,-0.5 0.140625,-0.3125 0.671875,-1.21875 1.625,-1.21875 0.453125,0 0.53125,0.375 0.53125,0.703125 0,0.25 -0.0625,0.53125 -0.140625,0.828125 L 3.890625,-1.5 3.6875,-0.75 c -0.03125,0.203125 -0.125,0.546875 -0.125,0.59375 0,0.171875 0.140625,0.265625 0.28125,0.265625 0.3125,0 0.375,-0.25 0.453125,-0.5625 0.140625,-0.5625 0.515625,-2.015625 0.59375,-2.40625 0.03125,-0.125 0.5625,-1.328125 1.65625,-1.328125 0.421875,0 0.53125,0.34375 0.53125,0.703125 0,0.5625 -0.421875,1.703125 -0.625,2.234375 -0.078125,0.234375 -0.125,0.34375 -0.125,0.546875 0,0.46875 0.34375,0.8125 0.8125,0.8125 0.9375,0 1.3125,-1.453125 1.3125,-1.53125 0,-0.109375 -0.09375,-0.109375 -0.125,-0.109375 -0.09375,0 -0.09375,0.03125 -0.140625,0.1875 -0.15625,0.53125 -0.46875,1.234375 -1.015625,1.234375 -0.171875,0 -0.25,-0.09375 -0.25,-0.328125 0,-0.25 0.09375,-0.484375 0.1875,-0.703125 0.1875,-0.53125 0.609375,-1.625 0.609375,-2.203125 0,-0.640625 -0.40625,-1.0625 -1.15625,-1.0625 -0.734375,0 -1.25,0.4375 -1.625,0.96875 0,-0.125 -0.03125,-0.46875 -0.3125,-0.703125 -0.25,-0.21875 -0.5625,-0.265625 -0.8125,-0.265625 -0.90625,0 -1.390625,0.640625 -1.5625,0.875 -0.046875,-0.578125 -0.46875,-0.875 -0.921875,-0.875 -0.453125,0 -0.640625,0.390625 -0.734375,0.5625 -0.171875,0.359375 -0.296875,0.9375 -0.296875,0.96875 0,0.109375 0.09375,0.109375 0.109375,0.109375 0.109375,0 0.109375,-0.015625 0.171875,-0.234375 0.171875,-0.703125 0.375,-1.1875 0.734375,-1.1875 0.15625,0 0.296875,0.078125 0.296875,0.453125 0,0.21875 -0.03125,0.328125 -0.15625,0.84375 z m 0,0"
           id="id-86e63f05-dd89-4ac9-9ee4-245cb07bc632" />
      </symbol>
      <symbol
         overflow="visible"
         id="id-d064838e-5e84-4ac2-a6e8-b0e0c96c57e4">
        <path
           style="stroke:none"
           d=""
           id="id-89c72ff5-7aed-40a2-b599-4b44dd7494fd" />
      </symbol>
      <symbol
         overflow="visible"
         id="id-3d220b8c-ddcc-408f-ae67-f8b91c572506">
        <path
           style="stroke:none"
           d="m 0.96875,-0.484375 c -0.03125,0.125 -0.078125,0.34375 -0.078125,0.359375 0,0.109375 0.09375,0.1875 0.1875,0.1875 0.0625,0 0.171875,-0.046875 0.234375,-0.171875 0,-0.03125 0.0625,-0.265625 0.09375,-0.390625 0.171875,-0.671875 0.171875,-0.6875 0.171875,-0.703125 0.078125,-0.125 0.4375,-0.828125 1.03125,-0.828125 0.25,0 0.359375,0.125 0.359375,0.359375 0,0.28125 -0.21875,0.796875 -0.328125,1.078125 -0.03125,0.0625 -0.046875,0.125 -0.046875,0.203125 0,0.265625 0.25,0.453125 0.546875,0.453125 0.53125,0 0.796875,-0.65625 0.796875,-0.78125 0,-0.0625 -0.078125,-0.0625 -0.09375,-0.0625 -0.09375,0 -0.09375,0.015625 -0.125,0.109375 C 3.625,-0.375 3.390625,-0.109375 3.15625,-0.109375 3.046875,-0.109375 3,-0.1875 3,-0.296875 3,-0.40625 3.03125,-0.453125 3.078125,-0.5625 c 0.078125,-0.203125 0.3125,-0.765625 0.3125,-1.046875 0,-0.375 -0.265625,-0.59375 -0.75,-0.59375 -0.453125,0 -0.765625,0.28125 -0.9375,0.5 -0.015625,-0.421875 -0.421875,-0.5 -0.609375,-0.5 -0.5,0 -0.640625,0.765625 -0.640625,0.765625 0,0.078125 0.078125,0.078125 0.109375,0.078125 0.078125,0 0.09375,-0.03125 0.109375,-0.09375 C 0.75,-1.75 0.859375,-2.03125 1.078125,-2.03125 c 0.15625,0 0.203125,0.15625 0.203125,0.265625 0,0.0625 -0.0625,0.25 -0.078125,0.390625 -0.046875,0.125 -0.09375,0.328125 -0.109375,0.4375 z m 0,0"
           id="id-97ff854a-7bd1-408f-905b-e2675ea655b2" />
      </symbol>
      <symbol
         overflow="visible"
         id="id-5f204453-3cbc-48e9-956b-35d538bada33">
        <path
           style="stroke:none"
           d=""
           id="id-97872a86-d414-4c95-aae6-43ab8f8665b1" />
      </symbol>
      <symbol
         overflow="visible"
         id="id-0833d11d-418e-4bc0-95dc-964b696a3925">
        <path
           style="stroke:none"
           d="m 6.84375,-3.265625 c 0.15625,0 0.34375,0 0.34375,-0.1875 C 7.1875,-3.65625 7,-3.65625 6.859375,-3.65625 h -5.96875 c -0.140625,0 -0.328125,0 -0.328125,0.203125 0,0.1875 0.1875,0.1875 0.328125,0.1875 z m 0.015625,1.9375 c 0.140625,0 0.328125,0 0.328125,-0.203125 0,-0.1875 -0.1875,-0.1875 -0.34375,-0.1875 H 0.890625 c -0.140625,0 -0.328125,0 -0.328125,0.1875 0,0.203125 0.1875,0.203125 0.328125,0.203125 z m 0,0"
           id="id-ee052dc7-6c9e-4289-b1ea-edd638fae497" />
      </symbol>
      <symbol
         overflow="visible"
         id="id-e9c5b955-82e9-4b78-86aa-210b34e22143">
        <path
           style="stroke:none"
           d=""
           id="id-ae566455-c228-47cf-95ca-b258d09b8ad1" />
      </symbol>
      <symbol
         overflow="visible"
         id="id-3709c190-ae8d-4519-8abb-7626f9af6cc5">
        <path
           style="stroke:none"
           d="M 3,-1.59375 C 3,-1.953125 3,-3.3125 1.6875,-3.3125 c -1.296875,0 -1.296875,1.359375 -1.296875,1.71875 0,0.359375 0,1.703125 1.296875,1.703125 C 3,0.109375 3,-1.234375 3,-1.59375 Z M 1.6875,-0.0625 C 1.515625,-0.0625 1.09375,-0.125 0.96875,-0.625 0.890625,-0.890625 0.890625,-1.25 0.890625,-1.65625 c 0,-0.375 0,-0.71875 0.078125,-1 0.125,-0.421875 0.515625,-0.5 0.71875,-0.5 0.375,0 0.640625,0.1875 0.734375,0.546875 C 2.5,-2.359375 2.5,-1.953125 2.5,-1.65625 c 0,0.34375 0,0.75 -0.078125,1.046875 C 2.296875,-0.125 1.890625,-0.0625 1.6875,-0.0625 Z m 0,0"
           id="id-3a823364-c78c-449a-88a6-6cf2fb3f81d4" />
      </symbol>
    </g>
    <g
       id="id-c79ced74-d2dc-4eaa-ba45-1188f0e189c3">
      <symbol
         overflow="visible"
         id="id-6cb7b0df-8dde-4c4b-9974-3c575b4b598c">
        <path
           style="stroke:none"
           d=""
           id="id-2eea3371-0bcf-4248-8c88-c1f4e87058d3" />
      </symbol>
      <symbol
         overflow="visible"
         id="id-78b32b60-4465-4532-a8e2-2436a6c445ee">
        <path
           style="stroke:none"
           d="m 1.578125,-7.125 c 0,-0.171875 0,-0.359375 -0.1875,-0.359375 -0.203125,0 -0.203125,0.1875 -0.203125,0.359375 v 9.265625 c 0,0.171875 0,0.359375 0.203125,0.359375 0.1875,0 0.1875,-0.1875 0.1875,-0.359375 z m 0,0"
           id="id-7b0a81f1-46ea-4bba-9374-f6082878995c" />
      </symbol>
      <symbol
         overflow="visible"
         id="id-7e1b8bc3-98fd-44b1-97e3-84beb4f35b61">
        <path
           style="stroke:none"
           d="M 2.71875,-2.328125 C 2.765625,-2.4375 2.765625,-2.46875 2.765625,-2.5 c 0,-0.015625 0,-0.046875 -0.046875,-0.15625 L 0.984375,-7.25 c -0.0625,-0.171875 -0.125,-0.234375 -0.234375,-0.234375 -0.109375,0 -0.203125,0.09375 -0.203125,0.203125 0,0.03125 0,0.046875 0.046875,0.15625 L 2.359375,-2.5 0.59375,2.109375 C 0.546875,2.21875 0.546875,2.25 0.546875,2.296875 0.546875,2.40625 0.640625,2.5 0.75,2.5 0.875,2.5 0.921875,2.390625 0.953125,2.296875 Z m 0,0"
           id="id-af64a095-bd1c-4617-b36a-4db5da3279b7" />
      </symbol>
      <symbol
         overflow="visible"
         id="id-c281bf9c-4ecc-4028-a50c-9fee87fa10f6">
        <path
           style="stroke:none"
           d=""
           id="id-9643e552-2fc1-4bc8-9d92-bbbb4c06f94c" />
      </symbol>
      <symbol
         overflow="visible"
         id="id-330e0f95-757d-4954-8d04-d0f606e22328">
        <path
           style="stroke:none"
           d="m 0.875,-0.59375 c -0.03125,0.15625 -0.09375,0.390625 -0.09375,0.4375 0,0.171875 0.140625,0.265625 0.296875,0.265625 0.125,0 0.296875,-0.078125 0.375,-0.28125 0,-0.015625 0.125,-0.484375 0.1875,-0.734375 l 0.21875,-0.890625 C 1.90625,-2.03125 1.96875,-2.25 2.03125,-2.46875 c 0.03125,-0.171875 0.109375,-0.46875 0.125,-0.5 0.140625,-0.3125 0.671875,-1.21875 1.625,-1.21875 0.453125,0 0.53125,0.375 0.53125,0.703125 0,0.25 -0.0625,0.53125 -0.140625,0.828125 L 3.890625,-1.5 3.6875,-0.75 c -0.03125,0.203125 -0.125,0.546875 -0.125,0.59375 0,0.171875 0.140625,0.265625 0.28125,0.265625 0.3125,0 0.375,-0.25 0.453125,-0.5625 0.140625,-0.5625 0.515625,-2.015625 0.59375,-2.40625 0.03125,-0.125 0.5625,-1.328125 1.65625,-1.328125 0.421875,0 0.53125,0.34375 0.53125,0.703125 0,0.5625 -0.421875,1.703125 -0.625,2.234375 -0.078125,0.234375 -0.125,0.34375 -0.125,0.546875 0,0.46875 0.34375,0.8125 0.8125,0.8125 0.9375,0 1.3125,-1.453125 1.3125,-1.53125 0,-0.109375 -0.09375,-0.109375 -0.125,-0.109375 -0.09375,0 -0.09375,0.03125 -0.140625,0.1875 -0.15625,0.53125 -0.46875,1.234375 -1.015625,1.234375 -0.171875,0 -0.25,-0.09375 -0.25,-0.328125 0,-0.25 0.09375,-0.484375 0.1875,-0.703125 0.1875,-0.53125 0.609375,-1.625 0.609375,-2.203125 0,-0.640625 -0.40625,-1.0625 -1.15625,-1.0625 -0.734375,0 -1.25,0.4375 -1.625,0.96875 0,-0.125 -0.03125,-0.46875 -0.3125,-0.703125 -0.25,-0.21875 -0.5625,-0.265625 -0.8125,-0.265625 -0.90625,0 -1.390625,0.640625 -1.5625,0.875 -0.046875,-0.578125 -0.46875,-0.875 -0.921875,-0.875 -0.453125,0 -0.640625,0.390625 -0.734375,0.5625 -0.171875,0.359375 -0.296875,0.9375 -0.296875,0.96875 0,0.109375 0.09375,0.109375 0.109375,0.109375 0.109375,0 0.109375,-0.015625 0.171875,-0.234375 0.171875,-0.703125 0.375,-1.1875 0.734375,-1.1875 0.15625,0 0.296875,0.078125 0.296875,0.453125 0,0.21875 -0.03125,0.328125 -0.15625,0.84375 z m 0,0"
           id="id-f875cd44-a697-4cab-93ff-a116e5d5ad63" />
      </symbol>
      <symbol
         overflow="visible"
         id="id-ace4d9e6-8fe1-46ea-81a1-d09705f86c99">
        <path
           style="stroke:none"
           d=""
           id="id-fc8d3998-334f-43e8-afba-d2687541bd61" />
      </symbol>
      <symbol
         overflow="visible"
         id="id-774c589d-2201-496f-a84d-cb893eda0c1d">
        <path
           style="stroke:none"
           d="m 1.640625,-1.65625 c 0.46875,0 0.765625,0.296875 0.765625,0.78125 0,0.515625 -0.3125,0.78125 -0.75,0.78125 -0.0625,0 -0.65625,0 -0.90625,-0.265625 0.203125,-0.03125 0.265625,-0.171875 0.265625,-0.296875 0,-0.1875 -0.140625,-0.3125 -0.3125,-0.3125 -0.15625,0 -0.296875,0.109375 -0.296875,0.328125 0,0.515625 0.578125,0.75 1.265625,0.75 0.8125,0 1.3125,-0.5 1.3125,-0.984375 0,-0.40625 -0.359375,-0.75 -0.921875,-0.875 0.59375,-0.203125 0.75,-0.578125 0.75,-0.859375 0,-0.40625 -0.5,-0.703125 -1.125,-0.703125 -0.625,0 -1.109375,0.25 -1.109375,0.703125 0,0.234375 0.1875,0.296875 0.28125,0.296875 0.140625,0 0.28125,-0.109375 0.28125,-0.296875 0,-0.109375 -0.0625,-0.25 -0.234375,-0.28125 C 1.109375,-3.109375 1.5625,-3.125 1.671875,-3.125 c 0.359375,0 0.609375,0.171875 0.609375,0.515625 0,0.296875 -0.1875,0.75 -0.703125,0.78125 -0.140625,0 -0.15625,0 -0.296875,0.015625 -0.046875,0 -0.109375,0 -0.109375,0.078125 0,0.078125 0.046875,0.078125 0.140625,0.078125 z m 0,0"
           id="id-04682e37-4464-4b66-be23-743286a6c831" />
      </symbol>
    </g>
    <g
       id="id-cdb05b57-aad3-44f8-a26b-51cee226a8a4">
      <symbol
         overflow="visible"
         id="id-0ed5d725-2be5-473c-b902-2756e8c15a6a">
        <path
           style="stroke:none"
           d=""
           id="id-4111518b-225f-4280-9c81-c160633b03f4" />
      </symbol>
      <symbol
         overflow="visible"
         id="id-828ee592-0423-4d91-94c0-c94303143de4">
        <path
           style="stroke:none"
           d="M 2.5,-6.921875 1.15625,-5.5625 1.328125,-5.390625 2.5,-6.40625 3.640625,-5.390625 3.8125,-5.5625 Z m 0,0"
           id="id-3a94fa4a-7a25-4dde-aa94-f06be8efeb5b" />
      </symbol>
      <symbol
         overflow="visible"
         id="id-4046f3b2-91ce-4041-883d-d443d235230d">
        <path
           style="stroke:none"
           d=""
           id="id-e487f794-221d-4d67-9996-fe11c18aafac" />
      </symbol>
      <symbol
         overflow="visible"
         id="id-2f909715-f80e-4e7c-9d3f-bfc2746a2549">
        <path
           style="stroke:none"
           d="M 3.296875,-3.34375 C 3.421875,-3.8125 3.5625,-4.3125 3.65625,-4.796875 3.78125,-5.46875 3.84375,-6.125 3.84375,-6.25 c 0,-0.5625 -0.546875,-0.5625 -0.65625,-0.5625 -0.765625,0 -1.4375,0.28125 -1.90625,0.609375 C 0.46875,-5.65625 0.203125,-5 0.203125,-4.9375 c 0,0.0625 0.078125,0.0625 0.109375,0.0625 0.078125,0 0.546875,-0.125 0.75,-0.5 0.265625,-0.5 0.5625,-0.890625 1.453125,-0.890625 C 2.9375,-6.265625 3,-5.984375 3,-5.828125 3,-5.8125 2.96875,-5.34375 2.84375,-4.65625 2.796875,-4.375 2.765625,-4.203125 2.5625,-3.34375 H 2.203125 c -0.28125,0.015625 -0.734375,0.328125 -0.734375,0.484375 0,0.0625 0,0.0625 0.21875,0.0625 h 0.71875 c -0.203125,0.703125 -0.484375,1.65625 -0.9375,2.875 C 1.375,0.3125 1.375,0.328125 1.375,0.34375 c 0,0.0625 0.078125,0.0625 0.09375,0.0625 0.140625,0 0.453125,-0.125 0.65625,-0.328125 C 2.171875,0.015625 2.1875,0 2.234375,-0.09375 2.578125,-0.984375 2.875,-1.875 3.140625,-2.796875 h 2.25 c 0.109375,0 0.296875,0 0.453125,-0.09375 -0.109375,0.421875 -0.515625,2.046875 -0.515625,2.828125 0,0.296875 0.171875,0.546875 0.59375,0.546875 1.328125,0 2.0625,-0.828125 2.0625,-1.140625 0,-0.0625 -0.046875,-0.078125 -0.09375,-0.078125 -0.078125,0 -0.609375,0.140625 -0.765625,0.53125 C 7.09375,-0.125 7.078125,-0.125 6.890625,-0.09375 6.78125,-0.0625 6.59375,-0.0625 6.578125,-0.0625 c -0.171875,0 -0.40625,-0.109375 -0.40625,-0.421875 0,-0.125 0.0625,-0.671875 0.09375,-0.890625 C 6.4375,-2.484375 6.921875,-4.359375 7.78125,-6.625 7.8125,-6.703125 7.8125,-6.71875 7.8125,-6.734375 7.8125,-6.8125 7.75,-6.8125 7.71875,-6.8125 c -0.15625,0 -0.4375,0.140625 -0.625,0.3125 -0.015625,0.015625 -0.078125,0.0625 -0.109375,0.15625 -0.40625,0.984375 -0.71875,1.984375 -1.015625,3 z m 0,0"
           id="id-b0693c08-5c86-4659-ac09-676328a2e6f7" />
      </symbol>
      <symbol
         overflow="visible"
         id="id-703eca81-501d-4f8c-9285-171740b22b68">
        <path
           style="stroke:none"
           d=""
           id="id-6170a337-f568-40d8-8839-113a57661981" />
      </symbol>
      <symbol
         overflow="visible"
         id="id-e608e55f-f1aa-41c0-be2a-9a3d3959263d">
        <path
           style="stroke:none"
           d="m 1.71875,-2.75 h 0.703125 c 0.140625,0 0.21875,0 0.21875,-0.15625 C 2.640625,-3 2.5625,-3 2.4375,-3 H 1.78125 l 0.25,-1.03125 C 2.046875,-4.0625 2.0625,-4.109375 2.0625,-4.125 c 0,-0.140625 -0.109375,-0.234375 -0.25,-0.234375 -0.171875,0 -0.265625,0.125 -0.328125,0.296875 C 1.4375,-3.875 1.53125,-4.21875 1.21875,-3 H 0.515625 c -0.125,0 -0.21875,0 -0.21875,0.15625 C 0.296875,-2.75 0.375,-2.75 0.5,-2.75 H 1.15625 L 0.75,-1.109375 C 0.703125,-0.9375 0.640625,-0.6875 0.640625,-0.59375 c 0,0.40625 0.359375,0.65625 0.75,0.65625 0.78125,0 1.21875,-0.96875 1.21875,-1.0625 0,-0.09375 -0.09375,-0.09375 -0.109375,-0.09375 -0.09375,0 -0.09375,0.015625 -0.15625,0.140625 -0.1875,0.4375 -0.546875,0.828125 -0.921875,0.828125 -0.15625,0 -0.25,-0.09375 -0.25,-0.34375 0,-0.0625 0.03125,-0.21875 0.046875,-0.28125 z m 0,0"
           id="id-5327ef0f-2839-46a3-83eb-aea2924383a2" />
      </symbol>
      <symbol
         overflow="visible"
         id="id-f1375764-a0e4-4fd9-bb4a-8a8630b1a2e3">
        <path
           style="stroke:none"
           d="m 1.46875,-0.109375 c 0,0.375 -0.0625,0.828125 -0.546875,1.265625 C 0.90625,1.1875 0.875,1.21875 0.875,1.25 c 0,0.046875 0.0625,0.09375 0.09375,0.09375 0.109375,0 0.703125,-0.5625 0.703125,-1.390625 0,-0.421875 -0.171875,-0.75 -0.5,-0.75 -0.21875,0 -0.390625,0.171875 -0.390625,0.390625 C 0.78125,-0.1875 0.9375,0 1.1875,0 1.359375,0 1.46875,-0.109375 1.46875,-0.109375 Z m 0,0"
           id="id-3b536473-a61d-47a8-964e-d10f7b8591ea" />
      </symbol>
      <symbol
         overflow="visible"
         id="id-2192e05f-2953-4da5-b6d4-6a48de565525">
        <path
           style="stroke:none"
           d="m 1.84375,-4.625 c 0,-0.015625 0.03125,-0.109375 0.03125,-0.109375 0,-0.046875 -0.03125,-0.109375 -0.125,-0.109375 -0.140625,0 -0.71875,0.0625 -0.890625,0.078125 -0.046875,0 -0.15625,0.015625 -0.15625,0.15625 0,0.09375 0.109375,0.09375 0.1875,0.09375 0.328125,0 0.328125,0.0625 0.328125,0.109375 0,0.046875 -0.0625,0.328125 -0.109375,0.484375 l -0.15625,0.640625 c -0.0625,0.25 -0.4375,1.765625 -0.453125,1.859375 -0.046875,0.171875 -0.046875,0.265625 -0.046875,0.34375 0,0.703125 0.453125,1.140625 1.03125,1.140625 0.875,0 1.796875,-0.9375 1.796875,-1.96875 0,-0.8125 -0.5625,-1.171875 -1.046875,-1.171875 -0.359375,0 -0.671875,0.203125 -0.875,0.390625 z m -0.359375,4.5 c -0.328125,0 -0.53125,-0.296875 -0.53125,-0.71875 0,-0.25 0.0625,-0.484375 0.265625,-1.28125 C 1.25,-2.25 1.25,-2.265625 1.390625,-2.421875 1.65625,-2.71875 1.96875,-2.875 2.21875,-2.875 c 0.265625,0 0.5,0.203125 0.5,0.671875 0,0.28125 -0.140625,1 -0.359375,1.40625 C 2.1875,-0.453125 1.84375,-0.125 1.484375,-0.125 Z m 0,0"
           id="id-b7e3999a-fa7c-40c3-8e5e-1bd602d50f1b" />
      </symbol>
      <symbol
         overflow="visible"
         id="id-0246aed6-258c-4b60-86d3-e70c9149dffb">
        <path
           style="stroke:none"
           d=""
           id="id-40fc5d0e-eb6d-4893-8948-1cc69452e147" />
      </symbol>
      <symbol
         overflow="visible"
         id="id-74d6e34b-8be9-4d7e-8ed0-292c44815481">
        <path
           style="stroke:none"
           d="m 5.359375,-2.34375 c 0.09375,0 0.25,0 0.25,-0.171875 0,-0.171875 -0.15625,-0.171875 -0.25,-0.171875 H 0.75 c -0.09375,0 -0.265625,0 -0.265625,0.171875 0,0.171875 0.15625,0.171875 0.265625,0.171875 z m 0,1.53125 c 0.09375,0 0.25,0 0.25,-0.15625 0,-0.1875 -0.15625,-0.1875 -0.25,-0.1875 H 0.75 c -0.109375,0 -0.265625,0 -0.265625,0.1875 0,0.15625 0.171875,0.15625 0.265625,0.15625 z m 0,0"
           id="id-b05c0d4a-72cd-4498-9a64-9a15616ec8e8" />
      </symbol>
      <symbol
         overflow="visible"
         id="id-692b76ea-0ec7-427d-8e6f-565217ac975e">
        <path
           style="stroke:none"
           d="M 3.515625,-1.265625 H 3.28125 c -0.015625,0.15625 -0.09375,0.5625 -0.1875,0.625 C 3.046875,-0.59375 2.515625,-0.59375 2.40625,-0.59375 H 1.125 c 0.734375,-0.640625 0.984375,-0.84375 1.390625,-1.171875 0.515625,-0.40625 1,-0.84375 1,-1.5 0,-0.84375 -0.734375,-1.359375 -1.625,-1.359375 -0.859375,0 -1.453125,0.609375 -1.453125,1.25 0,0.34375 0.296875,0.390625 0.375,0.390625 0.15625,0 0.359375,-0.125 0.359375,-0.375 0,-0.125 -0.046875,-0.375 -0.40625,-0.375 C 0.984375,-4.21875 1.453125,-4.375 1.78125,-4.375 c 0.703125,0 1.0625,0.546875 1.0625,1.109375 0,0.609375 -0.4375,1.078125 -0.65625,1.328125 L 0.515625,-0.265625 C 0.4375,-0.203125 0.4375,-0.1875 0.4375,0 h 2.875 z m 0,0"
           id="id-34b2f58d-199e-4432-9458-4c20f1c128ac" />
      </symbol>
      <symbol
         overflow="visible"
         id="id-4019e50b-f692-4333-a3d6-82f11d5f806c">
        <path
           style="stroke:none"
           d="m 1.90625,-2.328125 c 0.546875,0 0.9375,0.375 0.9375,1.125 0,0.859375 -0.515625,1.125 -0.90625,1.125 -0.28125,0 -0.90625,-0.078125 -1.1875,-0.5 0.328125,0 0.40625,-0.234375 0.40625,-0.390625 0,-0.21875 -0.171875,-0.375 -0.390625,-0.375 -0.1875,0 -0.390625,0.125 -0.390625,0.40625 0,0.65625 0.71875,1.078125 1.5625,1.078125 0.96875,0 1.640625,-0.65625 1.640625,-1.34375 0,-0.546875 -0.4375,-1.09375 -1.203125,-1.25 0.71875,-0.265625 0.984375,-0.78125 0.984375,-1.21875 0,-0.546875 -0.625,-0.953125 -1.40625,-0.953125 -0.765625,0 -1.359375,0.375 -1.359375,0.9375 0,0.234375 0.15625,0.359375 0.359375,0.359375 0.21875,0 0.359375,-0.15625 0.359375,-0.34375 0,-0.203125 -0.140625,-0.359375 -0.359375,-0.375 0.25,-0.296875 0.71875,-0.375 0.984375,-0.375 0.3125,0 0.75,0.15625 0.75,0.75 0,0.296875 -0.09375,0.625 -0.28125,0.828125 -0.21875,0.265625 -0.421875,0.28125 -0.765625,0.3125 -0.171875,0.015625 -0.1875,0.015625 -0.21875,0.015625 -0.015625,0 -0.078125,0.015625 -0.078125,0.09375 0,0.09375 0.0625,0.09375 0.1875,0.09375 z m 0,0"
           id="id-195ee71f-e0b8-4f73-a43f-9e5d28b462c1" />
      </symbol>
    </g>
    <g
       id="id-588b3c7a-2427-4471-80b6-c9928ca1aec3">
      <symbol
         overflow="visible"
         id="id-889b3bee-eaa7-4dc9-81d9-8ca9a4d55e69">
        <path
           style="stroke:none"
           d=""
           id="id-a68621db-6b37-4f93-a4d2-03ae808ac336" />
      </symbol>
      <symbol
         overflow="visible"
         id="id-15fea04f-d91b-4353-a021-6fbb5bedc36f">
        <path
           style="stroke:none"
           d="M 2.5,-6.921875 1.15625,-5.5625 1.328125,-5.390625 2.5,-6.40625 3.640625,-5.390625 3.8125,-5.5625 Z m 0,0"
           id="id-c9591eb0-0ba9-4258-89a2-802dbf96e5ee" />
      </symbol>
      <symbol
         overflow="visible"
         id="id-ec435e11-5af0-45a0-a45b-0fa4378d3a86">
        <path
           style="stroke:none"
           d=""
           id="id-7187475f-b639-4723-bb89-bbb3299dc04c" />
      </symbol>
      <symbol
         overflow="visible"
         id="id-b7cb092b-dbb7-4429-9270-2be106b3e3e0">
        <path
           style="stroke:none"
           d="M 3.296875,-3.34375 C 3.421875,-3.8125 3.5625,-4.3125 3.65625,-4.796875 3.78125,-5.46875 3.84375,-6.125 3.84375,-6.25 c 0,-0.5625 -0.546875,-0.5625 -0.65625,-0.5625 -0.765625,0 -1.4375,0.28125 -1.90625,0.609375 C 0.46875,-5.65625 0.203125,-5 0.203125,-4.9375 c 0,0.0625 0.078125,0.0625 0.109375,0.0625 0.078125,0 0.546875,-0.125 0.75,-0.5 0.265625,-0.5 0.5625,-0.890625 1.453125,-0.890625 C 2.9375,-6.265625 3,-5.984375 3,-5.828125 3,-5.8125 2.96875,-5.34375 2.84375,-4.65625 2.796875,-4.375 2.765625,-4.203125 2.5625,-3.34375 H 2.203125 c -0.28125,0.015625 -0.734375,0.328125 -0.734375,0.484375 0,0.0625 0,0.0625 0.21875,0.0625 h 0.71875 c -0.203125,0.703125 -0.484375,1.65625 -0.9375,2.875 C 1.375,0.3125 1.375,0.328125 1.375,0.34375 c 0,0.0625 0.078125,0.0625 0.09375,0.0625 0.140625,0 0.453125,-0.125 0.65625,-0.328125 C 2.171875,0.015625 2.1875,0 2.234375,-0.09375 2.578125,-0.984375 2.875,-1.875 3.140625,-2.796875 h 2.25 c 0.109375,0 0.296875,0 0.453125,-0.09375 -0.109375,0.421875 -0.515625,2.046875 -0.515625,2.828125 0,0.296875 0.171875,0.546875 0.59375,0.546875 1.328125,0 2.0625,-0.828125 2.0625,-1.140625 0,-0.0625 -0.046875,-0.078125 -0.09375,-0.078125 -0.078125,0 -0.609375,0.140625 -0.765625,0.53125 C 7.09375,-0.125 7.078125,-0.125 6.890625,-0.09375 6.78125,-0.0625 6.59375,-0.0625 6.578125,-0.0625 c -0.171875,0 -0.40625,-0.109375 -0.40625,-0.421875 0,-0.125 0.0625,-0.671875 0.09375,-0.890625 C 6.4375,-2.484375 6.921875,-4.359375 7.78125,-6.625 7.8125,-6.703125 7.8125,-6.71875 7.8125,-6.734375 7.8125,-6.8125 7.75,-6.8125 7.71875,-6.8125 c -0.15625,0 -0.4375,0.140625 -0.625,0.3125 -0.015625,0.015625 -0.078125,0.0625 -0.109375,0.15625 -0.40625,0.984375 -0.71875,1.984375 -1.015625,3 z m 0,0"
           id="id-fd1af5aa-38aa-4a5c-8e41-75b5665eb388" />
      </symbol>
      <symbol
         overflow="visible"
         id="id-5a2710f4-93a4-433d-b906-b4769f106440">
        <path
           style="stroke:none"
           d=""
           id="id-247f59b1-54c6-4806-9330-61f56f52840b" />
      </symbol>
      <symbol
         overflow="visible"
         id="id-8b0e64c9-fc2c-4cce-8dbf-a598c57869e9">
        <path
           style="stroke:none"
           d="m 1.71875,-2.75 h 0.703125 c 0.140625,0 0.21875,0 0.21875,-0.15625 C 2.640625,-3 2.5625,-3 2.4375,-3 H 1.78125 l 0.25,-1.03125 C 2.046875,-4.0625 2.0625,-4.109375 2.0625,-4.125 c 0,-0.140625 -0.109375,-0.234375 -0.25,-0.234375 -0.171875,0 -0.265625,0.125 -0.328125,0.296875 C 1.4375,-3.875 1.53125,-4.21875 1.21875,-3 H 0.515625 c -0.125,0 -0.21875,0 -0.21875,0.15625 C 0.296875,-2.75 0.375,-2.75 0.5,-2.75 H 1.15625 L 0.75,-1.109375 C 0.703125,-0.9375 0.640625,-0.6875 0.640625,-0.59375 c 0,0.40625 0.359375,0.65625 0.75,0.65625 0.78125,0 1.21875,-0.96875 1.21875,-1.0625 0,-0.09375 -0.09375,-0.09375 -0.109375,-0.09375 -0.09375,0 -0.09375,0.015625 -0.15625,0.140625 -0.1875,0.4375 -0.546875,0.828125 -0.921875,0.828125 -0.15625,0 -0.25,-0.09375 -0.25,-0.34375 0,-0.0625 0.03125,-0.21875 0.046875,-0.28125 z m 0,0"
           id="id-a67907f8-2d6e-4e27-aa14-6a6141b1005b" />
      </symbol>
      <symbol
         overflow="visible"
         id="id-894b07cf-cd11-42a5-9730-84b7a62d37aa">
        <path
           style="stroke:none"
           d="m 1.46875,-0.109375 c 0,0.375 -0.0625,0.828125 -0.546875,1.265625 C 0.90625,1.1875 0.875,1.21875 0.875,1.25 c 0,0.046875 0.0625,0.09375 0.09375,0.09375 0.109375,0 0.703125,-0.5625 0.703125,-1.390625 0,-0.421875 -0.171875,-0.75 -0.5,-0.75 -0.21875,0 -0.390625,0.171875 -0.390625,0.390625 C 0.78125,-0.1875 0.9375,0 1.1875,0 1.359375,0 1.46875,-0.109375 1.46875,-0.109375 Z m 0,0"
           id="id-b26ce357-c1eb-4418-a9f3-8234e9b107b1" />
      </symbol>
      <symbol
         overflow="visible"
         id="id-fd24fe98-4471-47d9-9a05-521c5062c861">
        <path
           style="stroke:none"
           d="m 1.84375,-4.625 c 0,-0.015625 0.03125,-0.109375 0.03125,-0.109375 0,-0.046875 -0.03125,-0.109375 -0.125,-0.109375 -0.140625,0 -0.71875,0.0625 -0.890625,0.078125 -0.046875,0 -0.15625,0.015625 -0.15625,0.15625 0,0.09375 0.109375,0.09375 0.1875,0.09375 0.328125,0 0.328125,0.0625 0.328125,0.109375 0,0.046875 -0.0625,0.328125 -0.109375,0.484375 l -0.15625,0.640625 c -0.0625,0.25 -0.4375,1.765625 -0.453125,1.859375 -0.046875,0.171875 -0.046875,0.265625 -0.046875,0.34375 0,0.703125 0.453125,1.140625 1.03125,1.140625 0.875,0 1.796875,-0.9375 1.796875,-1.96875 0,-0.8125 -0.5625,-1.171875 -1.046875,-1.171875 -0.359375,0 -0.671875,0.203125 -0.875,0.390625 z m -0.359375,4.5 c -0.328125,0 -0.53125,-0.296875 -0.53125,-0.71875 0,-0.25 0.0625,-0.484375 0.265625,-1.28125 C 1.25,-2.25 1.25,-2.265625 1.390625,-2.421875 1.65625,-2.71875 1.96875,-2.875 2.21875,-2.875 c 0.265625,0 0.5,0.203125 0.5,0.671875 0,0.28125 -0.140625,1 -0.359375,1.40625 C 2.1875,-0.453125 1.84375,-0.125 1.484375,-0.125 Z m 0,0"
           id="id-c3d2e54b-c978-450d-9eb6-4bfd6ed369c9" />
      </symbol>
      <symbol
         overflow="visible"
         id="id-4fad24d3-4798-45ec-8db7-708ce1cdf4c4">
        <path
           style="stroke:none"
           d=""
           id="id-0fa911ad-de3f-4b5b-811b-c9c6c8e75302" />
      </symbol>
      <symbol
         overflow="visible"
         id="id-de4c2164-8dc7-4676-a3c2-6b4240c41ac5">
        <path
           style="stroke:none"
           d="m 5.359375,-2.34375 c 0.09375,0 0.25,0 0.25,-0.171875 0,-0.171875 -0.15625,-0.171875 -0.25,-0.171875 H 0.75 c -0.09375,0 -0.265625,0 -0.265625,0.171875 0,0.171875 0.15625,0.171875 0.265625,0.171875 z m 0,1.53125 c 0.09375,0 0.25,0 0.25,-0.15625 0,-0.1875 -0.15625,-0.1875 -0.25,-0.1875 H 0.75 c -0.109375,0 -0.265625,0 -0.265625,0.1875 0,0.15625 0.171875,0.15625 0.265625,0.15625 z m 0,0"
           id="id-b55443ae-7dd2-46ea-8824-2fb64b50b046" />
      </symbol>
      <symbol
         overflow="visible"
         id="id-7d6891fd-0a14-4409-a0d0-99930288fa41">
        <path
           style="stroke:none"
           d="m 2.328125,-4.4375 c 0,-0.1875 0,-0.1875 -0.203125,-0.1875 -0.453125,0.4375 -1.078125,0.4375 -1.359375,0.4375 v 0.25 c 0.15625,0 0.625,0 1,-0.1875 v 3.546875 c 0,0.234375 0,0.328125 -0.6875,0.328125 H 0.8125 V 0 c 0.125,0 0.984375,-0.03125 1.234375,-0.03125 0.21875,0 1.09375,0.03125 1.25,0.03125 V -0.25 H 3.03125 c -0.703125,0 -0.703125,-0.09375 -0.703125,-0.328125 z m 0,0"
           id="id-2d99b9dc-69db-42a8-b986-0c31d14fcb79" />
      </symbol>
    </g>
    <g
       id="id-e00b65fc-9172-4c4d-b7c3-623656a7951a"
       style="stroke-width:0">
      <symbol
         overflow="visible"
         id="id-7c2053b8-d85a-4539-ab78-e41df0c14c51"
         style="stroke-width:0">
        <path
           style="stroke:none;stroke-width:0"
           d=""
           id="id-081bc42e-19c6-4b11-bbd0-ac50598d6607" />
      </symbol>
      <symbol
         overflow="visible"
         id="id-a8a9279e-69f4-4fea-a027-e6de677ca7e8"
         style="stroke-width:0">
        <path
           style="stroke:none;stroke-width:0"
           d="M 2.5,-6.921875 1.15625,-5.5625 1.328125,-5.390625 2.5,-6.40625 3.640625,-5.390625 3.8125,-5.5625 Z m 0,0"
           id="id-30c351ae-e28b-40cd-abad-027a5180812b" />
      </symbol>
      <symbol
         overflow="visible"
         id="id-57791a61-7412-42d9-8cb2-bf39f0528576"
         style="stroke-width:0">
        <path
           style="stroke:none;stroke-width:0"
           d=""
           id="id-23ab875d-edee-4f83-b47e-e2e38f68c913" />
      </symbol>
      <symbol
         overflow="visible"
         id="id-6b5b9d0e-68ae-4291-b5cc-b8e80b3ac29b"
         style="stroke-width:0">
        <path
           style="stroke:none;stroke-width:0"
           d="M 3.296875,-3.34375 C 3.421875,-3.8125 3.5625,-4.3125 3.65625,-4.796875 3.78125,-5.46875 3.84375,-6.125 3.84375,-6.25 c 0,-0.5625 -0.546875,-0.5625 -0.65625,-0.5625 -0.765625,0 -1.4375,0.28125 -1.90625,0.609375 C 0.46875,-5.65625 0.203125,-5 0.203125,-4.9375 c 0,0.0625 0.078125,0.0625 0.109375,0.0625 0.078125,0 0.546875,-0.125 0.75,-0.5 0.265625,-0.5 0.5625,-0.890625 1.453125,-0.890625 C 2.9375,-6.265625 3,-5.984375 3,-5.828125 3,-5.8125 2.96875,-5.34375 2.84375,-4.65625 2.796875,-4.375 2.765625,-4.203125 2.5625,-3.34375 H 2.203125 c -0.28125,0.015625 -0.734375,0.328125 -0.734375,0.484375 0,0.0625 0,0.0625 0.21875,0.0625 h 0.71875 c -0.203125,0.703125 -0.484375,1.65625 -0.9375,2.875 C 1.375,0.3125 1.375,0.328125 1.375,0.34375 c 0,0.0625 0.078125,0.0625 0.09375,0.0625 0.140625,0 0.453125,-0.125 0.65625,-0.328125 C 2.171875,0.015625 2.1875,0 2.234375,-0.09375 2.578125,-0.984375 2.875,-1.875 3.140625,-2.796875 h 2.25 c 0.109375,0 0.296875,0 0.453125,-0.09375 -0.109375,0.421875 -0.515625,2.046875 -0.515625,2.828125 0,0.296875 0.171875,0.546875 0.59375,0.546875 1.328125,0 2.0625,-0.828125 2.0625,-1.140625 0,-0.0625 -0.046875,-0.078125 -0.09375,-0.078125 -0.078125,0 -0.609375,0.140625 -0.765625,0.53125 C 7.09375,-0.125 7.078125,-0.125 6.890625,-0.09375 6.78125,-0.0625 6.59375,-0.0625 6.578125,-0.0625 c -0.171875,0 -0.40625,-0.109375 -0.40625,-0.421875 0,-0.125 0.0625,-0.671875 0.09375,-0.890625 C 6.4375,-2.484375 6.921875,-4.359375 7.78125,-6.625 7.8125,-6.703125 7.8125,-6.71875 7.8125,-6.734375 7.8125,-6.8125 7.75,-6.8125 7.71875,-6.8125 c -0.15625,0 -0.4375,0.140625 -0.625,0.3125 -0.015625,0.015625 -0.078125,0.0625 -0.109375,0.15625 -0.40625,0.984375 -0.71875,1.984375 -1.015625,3 z m 0,0"
           id="id-0fa683b6-1473-45ea-804a-380e3e0246da" />
      </symbol>
      <symbol
         overflow="visible"
         id="id-0a093aa9-01fc-4b55-a3d2-21a23b78adf2"
         style="stroke-width:0">
        <path
           style="stroke:none;stroke-width:0"
           d=""
           id="id-63edd51b-67d3-40e7-894d-ffaec547840c" />
      </symbol>
      <symbol
         overflow="visible"
         id="id-eec87d13-642b-4944-b76a-eacd4e8ef6df"
         style="stroke-width:0">
        <path
           style="stroke:none;stroke-width:0"
           d="m 1.71875,-2.75 h 0.703125 c 0.140625,0 0.21875,0 0.21875,-0.15625 C 2.640625,-3 2.5625,-3 2.4375,-3 H 1.78125 l 0.25,-1.03125 C 2.046875,-4.0625 2.0625,-4.109375 2.0625,-4.125 c 0,-0.140625 -0.109375,-0.234375 -0.25,-0.234375 -0.171875,0 -0.265625,0.125 -0.328125,0.296875 C 1.4375,-3.875 1.53125,-4.21875 1.21875,-3 H 0.515625 c -0.125,0 -0.21875,0 -0.21875,0.15625 C 0.296875,-2.75 0.375,-2.75 0.5,-2.75 H 1.15625 L 0.75,-1.109375 C 0.703125,-0.9375 0.640625,-0.6875 0.640625,-0.59375 c 0,0.40625 0.359375,0.65625 0.75,0.65625 0.78125,0 1.21875,-0.96875 1.21875,-1.0625 0,-0.09375 -0.09375,-0.09375 -0.109375,-0.09375 -0.09375,0 -0.09375,0.015625 -0.15625,0.140625 -0.1875,0.4375 -0.546875,0.828125 -0.921875,0.828125 -0.15625,0 -0.25,-0.09375 -0.25,-0.34375 0,-0.0625 0.03125,-0.21875 0.046875,-0.28125 z m 0,0"
           id="id-680562a3-60fd-4876-86db-bebc2ac2b8d7" />
      </symbol>
      <symbol
         overflow="visible"
         id="id-a81c6a48-ac28-465c-833b-c535c10d4606"
         style="stroke-width:0">
        <path
           style="stroke:none;stroke-width:0"
           d="m 1.46875,-0.109375 c 0,0.375 -0.0625,0.828125 -0.546875,1.265625 C 0.90625,1.1875 0.875,1.21875 0.875,1.25 c 0,0.046875 0.0625,0.09375 0.09375,0.09375 0.109375,0 0.703125,-0.5625 0.703125,-1.390625 0,-0.421875 -0.171875,-0.75 -0.5,-0.75 -0.21875,0 -0.390625,0.171875 -0.390625,0.390625 C 0.78125,-0.1875 0.9375,0 1.1875,0 1.359375,0 1.46875,-0.109375 1.46875,-0.109375 Z m 0,0"
           id="id-f48d8294-ce1d-4c53-9ca4-a02a77f9bb94" />
      </symbol>
      <symbol
         overflow="visible"
         id="id-c7b91db7-6a4e-4687-ac21-212698f5fa46"
         style="stroke-width:0">
        <path
           style="stroke:none;stroke-width:0"
           d="m 1.84375,-4.625 c 0,-0.015625 0.03125,-0.109375 0.03125,-0.109375 0,-0.046875 -0.03125,-0.109375 -0.125,-0.109375 -0.140625,0 -0.71875,0.0625 -0.890625,0.078125 -0.046875,0 -0.15625,0.015625 -0.15625,0.15625 0,0.09375 0.109375,0.09375 0.1875,0.09375 0.328125,0 0.328125,0.0625 0.328125,0.109375 0,0.046875 -0.0625,0.328125 -0.109375,0.484375 l -0.15625,0.640625 c -0.0625,0.25 -0.4375,1.765625 -0.453125,1.859375 -0.046875,0.171875 -0.046875,0.265625 -0.046875,0.34375 0,0.703125 0.453125,1.140625 1.03125,1.140625 0.875,0 1.796875,-0.9375 1.796875,-1.96875 0,-0.8125 -0.5625,-1.171875 -1.046875,-1.171875 -0.359375,0 -0.671875,0.203125 -0.875,0.390625 z m -0.359375,4.5 c -0.328125,0 -0.53125,-0.296875 -0.53125,-0.71875 0,-0.25 0.0625,-0.484375 0.265625,-1.28125 C 1.25,-2.25 1.25,-2.265625 1.390625,-2.421875 1.65625,-2.71875 1.96875,-2.875 2.21875,-2.875 c 0.265625,0 0.5,0.203125 0.5,0.671875 0,0.28125 -0.140625,1 -0.359375,1.40625 C 2.1875,-0.453125 1.84375,-0.125 1.484375,-0.125 Z m 0,0"
           id="id-cbb9a995-a28e-401a-960b-85ad49929bac" />
      </symbol>
      <symbol
         overflow="visible"
         id="id-72a42fe3-2937-4f47-ad97-91711150483a"
         style="stroke-width:0">
        <path
           style="stroke:none;stroke-width:0"
           d=""
           id="id-ac806297-5dfb-4231-a971-4538979eebf4" />
      </symbol>
      <symbol
         overflow="visible"
         id="id-657aa780-cb83-46a1-931b-c7b6bcffac2a"
         style="stroke-width:0">
        <path
           style="stroke:none;stroke-width:0"
           d="m 5.359375,-2.34375 c 0.09375,0 0.25,0 0.25,-0.171875 0,-0.171875 -0.15625,-0.171875 -0.25,-0.171875 H 0.75 c -0.09375,0 -0.265625,0 -0.265625,0.171875 0,0.171875 0.15625,0.171875 0.265625,0.171875 z m 0,1.53125 c 0.09375,0 0.25,0 0.25,-0.15625 0,-0.1875 -0.15625,-0.1875 -0.25,-0.1875 H 0.75 c -0.109375,0 -0.265625,0 -0.265625,0.1875 0,0.15625 0.171875,0.15625 0.265625,0.15625 z m 0,0"
           id="id-a43708b2-c214-4513-992c-2291a508bfc3" />
      </symbol>
      <symbol
         overflow="visible"
         id="id-6f28a388-364b-4a27-b1ff-162e035363fb"
         style="stroke-width:0">
        <path
           style="stroke:none;stroke-width:0"
           d="M 3.515625,-1.265625 H 3.28125 c -0.015625,0.15625 -0.09375,0.5625 -0.1875,0.625 C 3.046875,-0.59375 2.515625,-0.59375 2.40625,-0.59375 H 1.125 c 0.734375,-0.640625 0.984375,-0.84375 1.390625,-1.171875 0.515625,-0.40625 1,-0.84375 1,-1.5 0,-0.84375 -0.734375,-1.359375 -1.625,-1.359375 -0.859375,0 -1.453125,0.609375 -1.453125,1.25 0,0.34375 0.296875,0.390625 0.375,0.390625 0.15625,0 0.359375,-0.125 0.359375,-0.375 0,-0.125 -0.046875,-0.375 -0.40625,-0.375 C 0.984375,-4.21875 1.453125,-4.375 1.78125,-4.375 c 0.703125,0 1.0625,0.546875 1.0625,1.109375 0,0.609375 -0.4375,1.078125 -0.65625,1.328125 L 0.515625,-0.265625 C 0.4375,-0.203125 0.4375,-0.1875 0.4375,0 h 2.875 z m 0,0"
           id="id-b78ce208-5a2e-4fba-b5f3-4d03dea50c0c" />
      </symbol>
      <symbol
         overflow="visible"
         id="id-f1b912f1-f408-4dc9-afb7-31dd1c33e031"
         style="stroke-width:0">
        <path
           style="stroke:none;stroke-width:0"
           d="m 1.078125,-3.890625 c 0.359375,0.09375 0.5625,0.09375 0.671875,0.09375 0.921875,0 1.46875,-0.625 1.46875,-0.734375 0,-0.078125 -0.046875,-0.09375 -0.078125,-0.09375 -0.015625,0 -0.03125,0 -0.0625,0.015625 -0.171875,0.0625 -0.53125,0.203125 -1.046875,0.203125 -0.203125,0 -0.5625,-0.015625 -1.015625,-0.1875 C 0.9375,-4.625 0.921875,-4.625 0.921875,-4.625 c -0.09375,0 -0.09375,0.078125 -0.09375,0.1875 v 2.046875 c 0,0.125 0,0.203125 0.109375,0.203125 0.0625,0 0.078125,0 0.140625,-0.09375 0.296875,-0.375 0.734375,-0.4375 0.96875,-0.4375 0.421875,0 0.609375,0.328125 0.640625,0.390625 0.125,0.234375 0.171875,0.5 0.171875,0.90625 0,0.203125 0,0.609375 -0.21875,0.921875 -0.171875,0.25 -0.46875,0.421875 -0.8125,0.421875 -0.453125,0 -0.921875,-0.25 -1.09375,-0.71875 0.265625,0.015625 0.40625,-0.15625 0.40625,-0.34375 0,-0.296875 -0.265625,-0.34375 -0.359375,-0.34375 0,0 -0.34375,0 -0.34375,0.375 0,0.625 0.578125,1.25 1.40625,1.25 0.890625,0 1.671875,-0.65625 1.671875,-1.546875 0,-0.78125 -0.59375,-1.5 -1.453125,-1.5 -0.3125,0 -0.671875,0.0625 -0.984375,0.328125 z m 0,0"
           id="id-9bf901d4-ab9b-423b-9d57-0f75e822950c" />
      </symbol>
    </g>
    <g
       id="g3033">
      <symbol
         overflow="visible"
         id="symbol3007">
        <path
           style="stroke:none;stroke-width:0"
           d=""
           id="path3005" />
      </symbol>
      <symbol
         overflow="visible"
         id="symbol3011">
        <path
           style="stroke:none;stroke-width:0"
           d="m 1.578125,-7.125 c 0,-0.171875 0,-0.359375 -0.1875,-0.359375 -0.203125,0 -0.203125,0.1875 -0.203125,0.359375 v 9.265625 c 0,0.171875 0,0.359375 0.203125,0.359375 0.1875,0 0.1875,-0.1875 0.1875,-0.359375 z m 0,0"
           id="path3009" />
      </symbol>
      <symbol
         overflow="visible"
         id="symbol3015">
        <path
           style="stroke:none;stroke-width:0"
           d="M 2.71875,-2.328125 C 2.765625,-2.4375 2.765625,-2.46875 2.765625,-2.5 c 0,-0.015625 0,-0.046875 -0.046875,-0.15625 L 0.984375,-7.25 c -0.0625,-0.171875 -0.125,-0.234375 -0.234375,-0.234375 -0.109375,0 -0.203125,0.09375 -0.203125,0.203125 0,0.03125 0,0.046875 0.046875,0.15625 L 2.359375,-2.5 0.59375,2.109375 C 0.546875,2.21875 0.546875,2.25 0.546875,2.296875 0.546875,2.40625 0.640625,2.5 0.75,2.5 0.875,2.5 0.921875,2.390625 0.953125,2.296875 Z m 0,0"
           id="path3013" />
      </symbol>
      <symbol
         overflow="visible"
         id="symbol3019">
        <path
           style="stroke:none;stroke-width:0"
           d=""
           id="path3017" />
      </symbol>
      <symbol
         overflow="visible"
         id="symbol3023">
        <path
           style="stroke:none;stroke-width:0"
           d="m 0.875,-0.59375 c -0.03125,0.15625 -0.09375,0.390625 -0.09375,0.4375 0,0.171875 0.140625,0.265625 0.296875,0.265625 0.125,0 0.296875,-0.078125 0.375,-0.28125 0,-0.015625 0.125,-0.484375 0.1875,-0.734375 l 0.21875,-0.890625 C 1.90625,-2.03125 1.96875,-2.25 2.03125,-2.46875 c 0.03125,-0.171875 0.109375,-0.46875 0.125,-0.5 0.140625,-0.3125 0.671875,-1.21875 1.625,-1.21875 0.453125,0 0.53125,0.375 0.53125,0.703125 0,0.25 -0.0625,0.53125 -0.140625,0.828125 L 3.890625,-1.5 3.6875,-0.75 c -0.03125,0.203125 -0.125,0.546875 -0.125,0.59375 0,0.171875 0.140625,0.265625 0.28125,0.265625 0.3125,0 0.375,-0.25 0.453125,-0.5625 0.140625,-0.5625 0.515625,-2.015625 0.59375,-2.40625 0.03125,-0.125 0.5625,-1.328125 1.65625,-1.328125 0.421875,0 0.53125,0.34375 0.53125,0.703125 0,0.5625 -0.421875,1.703125 -0.625,2.234375 -0.078125,0.234375 -0.125,0.34375 -0.125,0.546875 0,0.46875 0.34375,0.8125 0.8125,0.8125 0.9375,0 1.3125,-1.453125 1.3125,-1.53125 0,-0.109375 -0.09375,-0.109375 -0.125,-0.109375 -0.09375,0 -0.09375,0.03125 -0.140625,0.1875 -0.15625,0.53125 -0.46875,1.234375 -1.015625,1.234375 -0.171875,0 -0.25,-0.09375 -0.25,-0.328125 0,-0.25 0.09375,-0.484375 0.1875,-0.703125 0.1875,-0.53125 0.609375,-1.625 0.609375,-2.203125 0,-0.640625 -0.40625,-1.0625 -1.15625,-1.0625 -0.734375,0 -1.25,0.4375 -1.625,0.96875 0,-0.125 -0.03125,-0.46875 -0.3125,-0.703125 -0.25,-0.21875 -0.5625,-0.265625 -0.8125,-0.265625 -0.90625,0 -1.390625,0.640625 -1.5625,0.875 -0.046875,-0.578125 -0.46875,-0.875 -0.921875,-0.875 -0.453125,0 -0.640625,0.390625 -0.734375,0.5625 -0.171875,0.359375 -0.296875,0.9375 -0.296875,0.96875 0,0.109375 0.09375,0.109375 0.109375,0.109375 0.109375,0 0.109375,-0.015625 0.171875,-0.234375 0.171875,-0.703125 0.375,-1.1875 0.734375,-1.1875 0.15625,0 0.296875,0.078125 0.296875,0.453125 0,0.21875 -0.03125,0.328125 -0.15625,0.84375 z m 0,0"
           id="path3021" />
      </symbol>
      <symbol
         overflow="visible"
         id="symbol3027">
        <path
           style="stroke:none;stroke-width:0"
           d=""
           id="path3025" />
      </symbol>
      <symbol
         overflow="visible"
         id="symbol3031">
        <path
           style="stroke:none;stroke-width:0"
           d="M 3,-1.59375 C 3,-1.953125 3,-3.3125 1.6875,-3.3125 c -1.296875,0 -1.296875,1.359375 -1.296875,1.71875 0,0.359375 0,1.703125 1.296875,1.703125 C 3,0.109375 3,-1.234375 3,-1.59375 Z M 1.6875,-0.0625 C 1.515625,-0.0625 1.09375,-0.125 0.96875,-0.625 0.890625,-0.890625 0.890625,-1.25 0.890625,-1.65625 c 0,-0.375 0,-0.71875 0.078125,-1 0.125,-0.421875 0.515625,-0.5 0.71875,-0.5 0.375,0 0.640625,0.1875 0.734375,0.546875 C 2.5,-2.359375 2.5,-1.953125 2.5,-1.65625 c 0,0.34375 0,0.75 -0.078125,1.046875 C 2.296875,-0.125 1.890625,-0.0625 1.6875,-0.0625 Z m 0,0"
           id="path3029" />
      </symbol>
    </g>
  </defs>
  <g
     inkscape:label="Layer 1"
     inkscape:groupmode="layer"
     id="layer1"
     transform="translate(-117.84177,-10.471358)">
    <path
       style="fill:#000000;fill-opacity:1;stroke:#808080;stroke-width:0.233606;stroke-linecap:round;stroke-dasharray:none;stroke-dashoffset:0;stroke-opacity:1"
       d="m 238.97189,28.358877 h 11.69442"
       id="path35176" />
    <text
       xml:space="preserve"
       style="font-style:normal;font-variant:normal;font-weight:normal;font-stretch:normal;font-size:4.51717px;font-family:sans-serif;-inkscape-font-specification:'sans-serif, Normal';font-variant-ligatures:normal;font-variant-caps:normal;font-variant-numeric:normal;font-variant-east-asian:normal;fill:#000000;fill-opacity:1;stroke:none;stroke-width:0.116405;stroke-linecap:round;stroke-dasharray:none;stroke-dashoffset:0;stroke-opacity:1"
       x="237.29988"
       y="22.651384"
       id="text23388-92-8-3"><tspan
         sodipodi:role="line"
         id="tspan23386-89-0-8"
         style="fill:#000000;fill-opacity:1;stroke:none;stroke-width:0.116405;stroke-dasharray:none;stroke-dashoffset:0"
         x="237.29988"
         y="22.651384">1</tspan></text>
    <text
       xml:space="preserve"
       style="font-style:normal;font-variant:normal;font-weight:normal;font-stretch:normal;font-size:4.51717px;font-family:sans-serif;-inkscape-font-specification:'sans-serif, Normal';font-variant-ligatures:normal;font-variant-caps:normal;font-variant-numeric:normal;font-variant-east-asian:normal;fill:#000000;fill-opacity:1;stroke:none;stroke-width:0.116405;stroke-linecap:round;stroke-dasharray:none;stroke-dashoffset:0;stroke-opacity:1"
       x="225.7319"
       y="29.697515"
       id="text23388-92-8-3-1"><tspan
         sodipodi:role="line"
         id="tspan23386-89-0-8-8"
         style="fill:#000000;fill-opacity:1;stroke:none;stroke-width:0.116405;stroke-dasharray:none;stroke-dashoffset:0"
         x="225.7319"
         y="29.697515">1</tspan></text>
    <text
       xml:space="preserve"
       style="font-style:normal;font-variant:normal;font-weight:normal;font-stretch:normal;font-size:4.51717px;font-family:sans-serif;-inkscape-font-specification:'sans-serif, Normal';font-variant-ligatures:normal;font-variant-caps:normal;font-variant-numeric:normal;font-variant-east-asian:normal;fill:#000000;fill-opacity:1;stroke:none;stroke-width:0.116405;stroke-linecap:round;stroke-dasharray:none;stroke-dashoffset:0;stroke-opacity:1"
       x="248.82402"
       y="22.651384"
       id="text23388-92-5-6"><tspan
         sodipodi:role="line"
         id="tspan23386-89-6-1"
         style="fill:#000000;fill-opacity:1;stroke:none;stroke-width:0.116405;stroke-dasharray:none;stroke-dashoffset:0"
         x="248.82402"
         y="22.651384">2</tspan></text>
    <text
       xml:space="preserve"
       style="font-style:normal;font-variant:normal;font-weight:normal;font-stretch:normal;font-size:4.51717px;font-family:sans-serif;-inkscape-font-specification:'sans-serif, Normal';font-variant-ligatures:normal;font-variant-caps:normal;font-variant-numeric:normal;font-variant-east-asian:normal;fill:#000000;fill-opacity:1;stroke:none;stroke-width:0.116405;stroke-linecap:round;stroke-dasharray:none;stroke-dashoffset:0;stroke-opacity:1"
       x="216.69562"
       y="14.559239"
       id="text23388-92-9"><tspan
         sodipodi:role="line"
         id="tspan23386-89-2"
         style="fill:#000000;fill-opacity:1;stroke:none;stroke-width:0.116405;stroke-dasharray:none;stroke-dashoffset:0"
         x="216.69562"
         y="14.559239">Particle</tspan></text>
    <text
       xml:space="preserve"
       style="font-style:normal;font-variant:normal;font-weight:normal;font-stretch:normal;font-size:4.51717px;font-family:sans-serif;-inkscape-font-specification:'sans-serif, Normal';font-variant-ligatures:normal;font-variant-caps:normal;font-variant-numeric:normal;font-variant-east-asian:normal;fill:#000000;fill-opacity:1;stroke:none;stroke-width:0.116405;stroke-linecap:round;stroke-dasharray:none;stroke-dashoffset:0;stroke-opacity:1"
       x="209.54347"
       y="22.583008"
       id="text23388-92-9-4"><tspan
         sodipodi:role="line"
         id="tspan23386-89-2-7"
         style="fill:#000000;fill-opacity:1;stroke:none;stroke-width:0.116405;stroke-dasharray:none;stroke-dashoffset:0"
         x="209.54347"
         y="22.583008">Bead</tspan></text>
    <g
       id="g20784-3-1-8-5-9-6"
       transform="matrix(1.1524136,0,0,1.1524136,94.648554,15.292234)"
       style="fill:#ffffff;fill-opacity:1">
      <rect
         style="fill:#ffffff;fill-opacity:1;stroke:#000000;stroke-width:0.5;stroke-dasharray:none;stroke-opacity:1"
         id="rect438-2-5-1-9-8-9-1"
         width="10.062434"
         height="2.4057004"
         x="125.01974"
         y="15.183006" />
    </g>
    <g
       id="g10011-0-4-9-3-7-4-73-0-6-0-45-1-7"
       transform="matrix(0.12991601,0,0,0.12991601,218.00838,11.524369)">
      <circle
         style="fill:#000000;fill-opacity:1;stroke:#000000;stroke-width:3.19572;stroke-dasharray:none;stroke-opacity:1"
         id="path9318-6-5-1-6-4-1-7-19-7-3-37-6-6"
         cx="160"
         cy="130"
         r="10" />
      <path
         style="fill:#000000;fill-opacity:1;stroke:#000000;stroke-width:2.81821;stroke-linecap:round;stroke-dasharray:none;stroke-opacity:1"
         d="m 153.41368,130 h 13.17264"
         id="path10004-0-7-5-5-4-9-2-3-55-7-93-4-8" />
      <path
         style="fill:#000000;fill-opacity:1;stroke:#000000;stroke-width:2.81821;stroke-linecap:round;stroke-dasharray:none;stroke-opacity:1"
         d="m 160,123.32755 v 13.3449"
         id="path10006-3-9-8-1-6-3-2-76-0-9-56-7-9" />
    </g>
    <g
       id="g10011-0-4-9-3-7-4-73-0-6-0-45-1-7-2"
       transform="matrix(0.12991601,0,0,0.12991601,229.53251,11.524369)">
      <circle
         style="fill:#000000;fill-opacity:1;stroke:#000000;stroke-width:3.19572;stroke-dasharray:none;stroke-opacity:1"
         id="path9318-6-5-1-6-4-1-7-19-7-3-37-6-6-3"
         cx="160"
         cy="130"
         r="10" />
      <path
         style="fill:#000000;fill-opacity:1;stroke:#000000;stroke-width:2.81821;stroke-linecap:round;stroke-dasharray:none;stroke-opacity:1"
         d="m 153.41368,130 h 13.17264"
         id="path10004-0-7-5-5-4-9-2-3-55-7-93-4-8-6" />
      <path
         style="fill:#000000;fill-opacity:1;stroke:#000000;stroke-width:2.81821;stroke-linecap:round;stroke-dasharray:none;stroke-opacity:1"
         d="m 160,123.32755 v 13.3449"
         id="path10006-3-9-8-1-6-3-2-76-0-9-56-7-9-5" />
    </g>
    <path
       style="fill:#000000;fill-opacity:1;stroke:#808080;stroke-width:0.233606;stroke-linecap:round;stroke-dasharray:none;stroke-dashoffset:0;stroke-opacity:1"
       d="m 238.97189,39.901208 h 11.69442"
       id="path35176-4" />
    <g
       id="g20784-3-1-8-5-9-6-1"
       transform="matrix(1.1524136,0,0,1.1524136,94.780628,26.644994)"
       style="fill:#ffffff;fill-opacity:1">
      <rect
         style="fill:#ffffff;fill-opacity:1;stroke:#000000;stroke-width:0.5;stroke-dasharray:none;stroke-opacity:1"
         id="rect438-2-5-1-9-8-9-1-7"
         width="10.062434"
         height="2.4057004"
         x="125.01974"
         y="15.183006" />
    </g>
    <g
       id="g10011-0-4-9-3-7-4-73-0-6-0-45-1-7-78"
       transform="matrix(0.12991601,0,0,0.12991601,218.00838,23.048506)">
      <circle
         style="fill:#000000;fill-opacity:1;stroke:#000000;stroke-width:3.19572;stroke-dasharray:none;stroke-opacity:1"
         id="path9318-6-5-1-6-4-1-7-19-7-3-37-6-6-7"
         cx="160"
         cy="130"
         r="10" />
      <path
         style="fill:#000000;fill-opacity:1;stroke:#000000;stroke-width:2.81821;stroke-linecap:round;stroke-dasharray:none;stroke-opacity:1"
         d="m 153.41368,130 h 13.17264"
         id="path10004-0-7-5-5-4-9-2-3-55-7-93-4-8-7" />
      <path
         style="fill:#000000;fill-opacity:1;stroke:#000000;stroke-width:2.81821;stroke-linecap:round;stroke-dasharray:none;stroke-opacity:1"
         d="m 160,123.32755 v 13.3449"
         id="path10006-3-9-8-1-6-3-2-76-0-9-56-7-9-44" />
    </g>
    <g
       id="g10011-0-4-9-3-7-4-73-0-6-0-45-1-7-2-9"
       transform="matrix(0.12991601,0,0,0.12991601,229.53251,23.048506)">
      <circle
         style="fill:#000000;fill-opacity:1;stroke:#000000;stroke-width:3.19572;stroke-dasharray:none;stroke-opacity:1"
         id="path9318-6-5-1-6-4-1-7-19-7-3-37-6-6-3-1"
         cx="160"
         cy="130"
         r="10" />
      <path
         style="fill:#000000;fill-opacity:1;stroke:#000000;stroke-width:2.81821;stroke-linecap:round;stroke-dasharray:none;stroke-opacity:1"
         d="m 153.41368,130 h 13.17264"
         id="path10004-0-7-5-5-4-9-2-3-55-7-93-4-8-6-5" />
      <path
         style="fill:#000000;fill-opacity:1;stroke:#000000;stroke-width:2.81821;stroke-linecap:round;stroke-dasharray:none;stroke-opacity:1"
         d="m 160,123.32755 v 13.3449"
         id="path10006-3-9-8-1-6-3-2-76-0-9-56-7-9-5-5" />
    </g>
    <path
       style="fill:#000000;fill-opacity:1;stroke:#808080;stroke-width:0.233606;stroke-linecap:round;stroke-dasharray:none;stroke-dashoffset:0;stroke-opacity:1"
       d="m 238.99033,51.44354 h 11.69442"
       id="path35176-3" />
    <g
       id="g20784-3-1-8-5-9-6-0"
       transform="matrix(1.1524136,0,0,1.1524136,94.720502,38.340507)"
       style="fill:#ffffff;fill-opacity:1">
      <rect
         style="fill:#ffffff;fill-opacity:1;stroke:#000000;stroke-width:0.5;stroke-dasharray:none;stroke-opacity:1"
         id="rect438-2-5-1-9-8-9-1-6"
         width="10.062434"
         height="2.4057004"
         x="125.01974"
         y="15.183006" />
    </g>
    <g
       id="g10011-0-4-9-3-7-4-73-0-6-0-45-1-7-52"
       transform="matrix(0.12991601,0,0,0.12991601,218.08034,34.572642)">
      <circle
         style="fill:#000000;fill-opacity:1;stroke:#000000;stroke-width:3.19572;stroke-dasharray:none;stroke-opacity:1"
         id="path9318-6-5-1-6-4-1-7-19-7-3-37-6-6-2"
         cx="160"
         cy="130"
         r="10" />
      <path
         style="fill:#000000;fill-opacity:1;stroke:#000000;stroke-width:2.81821;stroke-linecap:round;stroke-dasharray:none;stroke-opacity:1"
         d="m 153.41368,130 h 13.17264"
         id="path10004-0-7-5-5-4-9-2-3-55-7-93-4-8-71" />
      <path
         style="fill:#000000;fill-opacity:1;stroke:#000000;stroke-width:2.81821;stroke-linecap:round;stroke-dasharray:none;stroke-opacity:1"
         d="m 160,123.32755 v 13.3449"
         id="path10006-3-9-8-1-6-3-2-76-0-9-56-7-9-52" />
    </g>
    <g
       id="g10011-0-4-9-3-7-4-73-0-6-0-45-1-7-2-1"
       transform="matrix(0.12991601,0,0,0.12991601,229.60447,34.572642)">
      <circle
         style="fill:#000000;fill-opacity:1;stroke:#000000;stroke-width:3.19572;stroke-dasharray:none;stroke-opacity:1"
         id="path9318-6-5-1-6-4-1-7-19-7-3-37-6-6-3-10"
         cx="160"
         cy="130"
         r="10" />
      <path
         style="fill:#000000;fill-opacity:1;stroke:#000000;stroke-width:2.81821;stroke-linecap:round;stroke-dasharray:none;stroke-opacity:1"
         d="m 153.41368,130 h 13.17264"
         id="path10004-0-7-5-5-4-9-2-3-55-7-93-4-8-6-1" />
      <path
         style="fill:#000000;fill-opacity:1;stroke:#000000;stroke-width:2.81821;stroke-linecap:round;stroke-dasharray:none;stroke-opacity:1"
         d="m 160,123.32755 v 13.3449"
         id="path10006-3-9-8-1-6-3-2-76-0-9-56-7-9-5-8" />
    </g>
    <path
       style="fill:#000000;fill-opacity:1;stroke:#808080;stroke-width:0.233606;stroke-linecap:round;stroke-dasharray:none;stroke-dashoffset:0;stroke-opacity:1"
       d="m 238.97189,62.98587 h 11.69442"
       id="path35176-3-3" />
    <g
       id="g10011-0-4-9-3-7-4-73-0-6-0-45-1-7-52-9"
       transform="matrix(0.12991601,0,0,0.12991601,218.00838,46.096778)">
      <circle
         style="fill:#000000;fill-opacity:1;stroke:#000000;stroke-width:3.19572;stroke-dasharray:none;stroke-opacity:1"
         id="path9318-6-5-1-6-4-1-7-19-7-3-37-6-6-2-0"
         cx="160"
         cy="130"
         r="10" />
      <path
         style="fill:#000000;fill-opacity:1;stroke:#000000;stroke-width:2.81821;stroke-linecap:round;stroke-dasharray:none;stroke-opacity:1"
         d="m 153.41368,130 h 13.17264"
         id="path10004-0-7-5-5-4-9-2-3-55-7-93-4-8-71-5" />
      <path
         style="fill:#000000;fill-opacity:1;stroke:#000000;stroke-width:2.81821;stroke-linecap:round;stroke-dasharray:none;stroke-opacity:1"
         d="m 160,123.32755 v 13.3449"
         id="path10006-3-9-8-1-6-3-2-76-0-9-56-7-9-52-6" />
    </g>
    <g
       id="g10011-0-4-9-3-7-4-73-0-6-0-45-1-7-2-1-3"
       transform="matrix(0.12991601,0,0,0.12991601,229.53251,46.096778)">
      <circle
         style="fill:#000000;fill-opacity:1;stroke:#000000;stroke-width:3.19572;stroke-dasharray:none;stroke-opacity:1"
         id="path9318-6-5-1-6-4-1-7-19-7-3-37-6-6-3-10-6"
         cx="160"
         cy="130"
         r="10" />
      <path
         style="fill:#000000;fill-opacity:1;stroke:#000000;stroke-width:2.81821;stroke-linecap:round;stroke-dasharray:none;stroke-opacity:1"
         d="m 153.41368,130 h 13.17264"
         id="path10004-0-7-5-5-4-9-2-3-55-7-93-4-8-6-1-3" />
      <path
         style="fill:#000000;fill-opacity:1;stroke:#000000;stroke-width:2.81821;stroke-linecap:round;stroke-dasharray:none;stroke-opacity:1"
         d="m 160,123.32755 v 13.3449"
         id="path10006-3-9-8-1-6-3-2-76-0-9-56-7-9-5-8-0" />
    </g>
    <g
       id="g20784-3-1-8-5-9-6-1-0"
       transform="matrix(1.1524136,0,0,1.1524136,94.708691,72.741539)"
       style="fill:#ffffff;fill-opacity:1">
      <rect
         style="fill:#ffffff;fill-opacity:1;stroke:#000000;stroke-width:0.5;stroke-dasharray:none;stroke-opacity:1"
         id="rect438-2-5-1-9-8-9-1-7-9"
         width="10.062434"
         height="2.4057004"
         x="125.01974"
         y="15.183006" />
    </g>
    <path
       style="fill:#000000;fill-opacity:1;stroke:#808080;stroke-width:0.233606;stroke-linecap:round;stroke-dasharray:none;stroke-dashoffset:0;stroke-opacity:1"
       d="m 238.99033,97.612862 h 11.69442"
       id="path35176-3-5" />
    <g
       id="g10011-0-4-9-3-7-4-73-0-6-0-45-1-7-52-7"
       transform="matrix(0.12991601,0,0,0.12991601,218.31448,80.477966)">
      <circle
         style="fill:#000000;fill-opacity:1;stroke:#000000;stroke-width:3.19572;stroke-dasharray:none;stroke-opacity:1"
         id="path9318-6-5-1-6-4-1-7-19-7-3-37-6-6-2-2"
         cx="160"
         cy="130"
         r="10" />
      <path
         style="fill:#000000;fill-opacity:1;stroke:#000000;stroke-width:2.81821;stroke-linecap:round;stroke-dasharray:none;stroke-opacity:1"
         d="m 153.41368,130 h 13.17264"
         id="path10004-0-7-5-5-4-9-2-3-55-7-93-4-8-71-9" />
      <path
         style="fill:#000000;fill-opacity:1;stroke:#000000;stroke-width:2.81821;stroke-linecap:round;stroke-dasharray:none;stroke-opacity:1"
         d="m 160,123.32755 v 13.3449"
         id="path10006-3-9-8-1-6-3-2-76-0-9-56-7-9-52-7" />
    </g>
    <g
       id="g10011-0-4-9-3-7-4-73-0-6-0-45-1-7-2-1-5"
       transform="matrix(0.12991601,0,0,0.12991601,229.83861,80.477966)">
      <circle
         style="fill:#000000;fill-opacity:1;stroke:#000000;stroke-width:3.19572;stroke-dasharray:none;stroke-opacity:1"
         id="path9318-6-5-1-6-4-1-7-19-7-3-37-6-6-3-10-65"
         cx="160"
         cy="130"
         r="10" />
      <path
         style="fill:#000000;fill-opacity:1;stroke:#000000;stroke-width:2.81821;stroke-linecap:round;stroke-dasharray:none;stroke-opacity:1"
         d="m 153.41368,130 h 13.17264"
         id="path10004-0-7-5-5-4-9-2-3-55-7-93-4-8-6-1-30" />
      <path
         style="fill:#000000;fill-opacity:1;stroke:#000000;stroke-width:2.81821;stroke-linecap:round;stroke-dasharray:none;stroke-opacity:1"
         d="m 160,123.32755 v 13.3449"
         id="path10006-3-9-8-1-6-3-2-76-0-9-56-7-9-5-8-4" />
    </g>
    <text
       xml:space="preserve"
       style="font-style:normal;font-variant:normal;font-weight:normal;font-stretch:normal;font-size:4.51717px;font-family:sans-serif;-inkscape-font-specification:'sans-serif, Normal';font-variant-ligatures:normal;font-variant-caps:normal;font-variant-numeric:normal;font-variant-east-asian:normal;fill:#000000;fill-opacity:1;stroke:none;stroke-width:0.116405;stroke-linecap:round;stroke-dasharray:none;stroke-dashoffset:0;stroke-opacity:1"
       x="225.73189"
       y="41.221653"
       id="text23388-92-5-6-7"><tspan
         sodipodi:role="line"
         id="tspan23386-89-6-1-1"
         style="fill:#000000;fill-opacity:1;stroke:none;stroke-width:0.116405;stroke-dasharray:none;stroke-dashoffset:0"
         x="225.73189"
         y="41.221653">2</tspan></text>
    <text
       xml:space="preserve"
       style="font-style:normal;font-variant:normal;font-weight:normal;font-stretch:normal;font-size:4.51717px;font-family:sans-serif;-inkscape-font-specification:'sans-serif, Normal';font-variant-ligatures:normal;font-variant-caps:normal;font-variant-numeric:normal;font-variant-east-asian:normal;fill:#000000;fill-opacity:1;stroke:none;stroke-width:0.116405;stroke-linecap:round;stroke-dasharray:none;stroke-dashoffset:0;stroke-opacity:1"
       x="225.7319"
       y="64.26992"
       id="text23388-92-2-7-8"><tspan
         sodipodi:role="line"
         id="tspan23386-89-5-8-5"
         style="fill:#000000;fill-opacity:1;stroke:none;stroke-width:0.116405;stroke-dasharray:none;stroke-dashoffset:0"
         x="225.7319"
         y="64.26992">4</tspan></text>
    <text
       xml:space="preserve"
       style="font-style:normal;font-variant:normal;font-weight:normal;font-stretch:normal;font-size:4.51717px;font-family:sans-serif;-inkscape-font-specification:'sans-serif, Normal';font-variant-ligatures:normal;font-variant-caps:normal;font-variant-numeric:normal;font-variant-east-asian:normal;fill:#000000;fill-opacity:1;stroke:none;stroke-width:0.116405;stroke-linecap:round;stroke-dasharray:none;stroke-dashoffset:0;stroke-opacity:1"
       x="225.73743"
       y="87.332428"
       id="text23388-92-2-7-8-9"><tspan
         sodipodi:role="line"
         id="tspan23386-89-5-8-5-9"
         style="fill:#000000;fill-opacity:1;stroke:none;stroke-width:0.116405;stroke-dasharray:none;stroke-dashoffset:0"
         x="225.73743"
         y="87.332428">P</tspan></text>
    <text
       xml:space="preserve"
       style="font-style:normal;font-variant:normal;font-weight:normal;font-stretch:normal;font-size:4.51717px;font-family:sans-serif;-inkscape-font-specification:'sans-serif, Normal';font-variant-ligatures:normal;font-variant-caps:normal;font-variant-numeric:normal;font-variant-east-asian:normal;fill:#000000;fill-opacity:1;stroke:none;stroke-width:0.116405;stroke-linecap:round;stroke-dasharray:none;stroke-dashoffset:0;stroke-opacity:1"
       x="225.7319"
       y="52.745792"
       id="text23388-92-0-9-9"><tspan
         sodipodi:role="line"
         id="tspan23386-89-8-6-4"
         style="fill:#000000;fill-opacity:1;stroke:none;stroke-width:0.116405;stroke-dasharray:none;stroke-dashoffset:0"
         x="225.7319"
         y="52.745792">3</tspan></text>
    <path
       style="fill:#000000;fill-opacity:1;stroke:#000000;stroke-width:0.453964;stroke-dasharray:none;stroke-opacity:1"
       d="m 209.77396,12.890142 23.71336,7.389204"
       id="path13039" />
    <path
       style="fill:#000000;fill-opacity:1;stroke:#808080;stroke-width:0.233606;stroke-linecap:round;stroke-dasharray:none;stroke-dashoffset:0;stroke-opacity:1"
       d="m 238.97189,86.070532 h 11.69442"
       id="path35176-3-3-0" />
    <g
       id="g10011-0-4-9-3-7-4-73-0-6-0-45-1-7-52-9-5"
       transform="matrix(0.12991601,0,0,0.12991601,218.00838,69.145051)">
      <circle
         style="fill:#000000;fill-opacity:1;stroke:#000000;stroke-width:3.19572;stroke-dasharray:none;stroke-opacity:1"
         id="path9318-6-5-1-6-4-1-7-19-7-3-37-6-6-2-0-6"
         cx="160"
         cy="130"
         r="10" />
      <path
         style="fill:#000000;fill-opacity:1;stroke:#000000;stroke-width:2.81821;stroke-linecap:round;stroke-dasharray:none;stroke-opacity:1"
         d="m 153.41368,130 h 13.17264"
         id="path10004-0-7-5-5-4-9-2-3-55-7-93-4-8-71-5-8" />
      <path
         style="fill:#000000;fill-opacity:1;stroke:#000000;stroke-width:2.81821;stroke-linecap:round;stroke-dasharray:none;stroke-opacity:1"
         d="m 160,123.32755 v 13.3449"
         id="path10006-3-9-8-1-6-3-2-76-0-9-56-7-9-52-6-5" />
    </g>
    <g
       id="g10011-0-4-9-3-7-4-73-0-6-0-45-1-7-2-1-3-3"
       transform="matrix(0.12991601,0,0,0.12991601,229.53251,69.145051)">
      <circle
         style="fill:#000000;fill-opacity:1;stroke:#000000;stroke-width:3.19572;stroke-dasharray:none;stroke-opacity:1"
         id="path9318-6-5-1-6-4-1-7-19-7-3-37-6-6-3-10-6-7"
         cx="160"
         cy="130"
         r="10" />
      <path
         style="fill:#000000;fill-opacity:1;stroke:#000000;stroke-width:2.81821;stroke-linecap:round;stroke-dasharray:none;stroke-opacity:1"
         d="m 153.41368,130 h 13.17264"
         id="path10004-0-7-5-5-4-9-2-3-55-7-93-4-8-6-1-3-6" />
      <path
         style="fill:#000000;fill-opacity:1;stroke:#000000;stroke-width:2.81821;stroke-linecap:round;stroke-dasharray:none;stroke-opacity:1"
         d="m 160,123.32755 v 13.3449"
         id="path10006-3-9-8-1-6-3-2-76-0-9-56-7-9-5-8-0-8" />
    </g>
    <text
       xml:space="preserve"
       style="font-style:normal;font-variant:normal;font-weight:normal;font-stretch:normal;font-size:4.51717px;font-family:sans-serif;-inkscape-font-specification:'sans-serif, Normal';font-variant-ligatures:normal;font-variant-caps:normal;font-variant-numeric:normal;font-variant-east-asian:normal;fill:#000000;fill-opacity:1;stroke:none;stroke-width:0.116405;stroke-linecap:round;stroke-dasharray:none;stroke-dashoffset:0;stroke-opacity:1"
       x="222.65381"
       y="98.852432"
       id="text23388-92-2-7-8-9-7"><tspan
         sodipodi:role="line"
         id="tspan23386-89-5-8-5-9-0"
         style="fill:#000000;fill-opacity:1;stroke:none;stroke-width:0.116405;stroke-dasharray:none;stroke-dashoffset:0"
         x="222.65381"
         y="98.852432">P+1</tspan></text>
    <g
       transform="matrix(0.69145462,0,0,0.69145462,260.86497,25.025037)"
       ns4:version="1.8.2"
       ns4:texconverter="pdflatex"
       ns4:pdfconverter="inkscape"
       ns4:text="$\\ket{\\m{}{0}}$"
       ns4:preamble="/home/evbdeoli/.config/inkscape/extensions/textext/default_packages.tex"
       ns4:scale="0.6706770263451803"
       ns4:alignment="middle center"
       ns4:stroke-to-path="0"
       ns4:inkscapeversion="1.2"
       ns4:jacobian_sqrt="0.2366"
       id="g1841">
      <defs
         id="id-f52afeb5-1ad1-4f11-8aa1-1a6462546e35">
        <g
           id="g41112">
          <symbol
             overflow="visible"
             id="symbol41086">
            <path
               style="stroke:none;stroke-width:0"
               d=""
               id="path41084" />
          </symbol>
          <symbol
             overflow="visible"
             id="symbol41090">
            <path
               style="stroke:none;stroke-width:0"
               d="m 1.578125,-7.125 c 0,-0.171875 0,-0.359375 -0.1875,-0.359375 -0.203125,0 -0.203125,0.1875 -0.203125,0.359375 v 9.265625 c 0,0.171875 0,0.359375 0.203125,0.359375 0.1875,0 0.1875,-0.1875 0.1875,-0.359375 z m 0,0"
               id="path41088" />
          </symbol>
          <symbol
             overflow="visible"
             id="symbol41094">
            <path
               style="stroke:none;stroke-width:0"
               d="M 2.71875,-2.328125 C 2.765625,-2.4375 2.765625,-2.46875 2.765625,-2.5 c 0,-0.015625 0,-0.046875 -0.046875,-0.15625 L 0.984375,-7.25 c -0.0625,-0.171875 -0.125,-0.234375 -0.234375,-0.234375 -0.109375,0 -0.203125,0.09375 -0.203125,0.203125 0,0.03125 0,0.046875 0.046875,0.15625 L 2.359375,-2.5 0.59375,2.109375 C 0.546875,2.21875 0.546875,2.25 0.546875,2.296875 0.546875,2.40625 0.640625,2.5 0.75,2.5 0.875,2.5 0.921875,2.390625 0.953125,2.296875 Z m 0,0"
               id="path41092" />
          </symbol>
          <symbol
             overflow="visible"
             id="symbol41098">
            <path
               style="stroke:none;stroke-width:0"
               d=""
               id="path41096" />
          </symbol>
          <symbol
             overflow="visible"
             id="symbol41102">
            <path
               style="stroke:none;stroke-width:0"
               d="m 0.875,-0.59375 c -0.03125,0.15625 -0.09375,0.390625 -0.09375,0.4375 0,0.171875 0.140625,0.265625 0.296875,0.265625 0.125,0 0.296875,-0.078125 0.375,-0.28125 0,-0.015625 0.125,-0.484375 0.1875,-0.734375 l 0.21875,-0.890625 C 1.90625,-2.03125 1.96875,-2.25 2.03125,-2.46875 c 0.03125,-0.171875 0.109375,-0.46875 0.125,-0.5 0.140625,-0.3125 0.671875,-1.21875 1.625,-1.21875 0.453125,0 0.53125,0.375 0.53125,0.703125 0,0.25 -0.0625,0.53125 -0.140625,0.828125 L 3.890625,-1.5 3.6875,-0.75 c -0.03125,0.203125 -0.125,0.546875 -0.125,0.59375 0,0.171875 0.140625,0.265625 0.28125,0.265625 0.3125,0 0.375,-0.25 0.453125,-0.5625 0.140625,-0.5625 0.515625,-2.015625 0.59375,-2.40625 0.03125,-0.125 0.5625,-1.328125 1.65625,-1.328125 0.421875,0 0.53125,0.34375 0.53125,0.703125 0,0.5625 -0.421875,1.703125 -0.625,2.234375 -0.078125,0.234375 -0.125,0.34375 -0.125,0.546875 0,0.46875 0.34375,0.8125 0.8125,0.8125 0.9375,0 1.3125,-1.453125 1.3125,-1.53125 0,-0.109375 -0.09375,-0.109375 -0.125,-0.109375 -0.09375,0 -0.09375,0.03125 -0.140625,0.1875 -0.15625,0.53125 -0.46875,1.234375 -1.015625,1.234375 -0.171875,0 -0.25,-0.09375 -0.25,-0.328125 0,-0.25 0.09375,-0.484375 0.1875,-0.703125 0.1875,-0.53125 0.609375,-1.625 0.609375,-2.203125 0,-0.640625 -0.40625,-1.0625 -1.15625,-1.0625 -0.734375,0 -1.25,0.4375 -1.625,0.96875 0,-0.125 -0.03125,-0.46875 -0.3125,-0.703125 -0.25,-0.21875 -0.5625,-0.265625 -0.8125,-0.265625 -0.90625,0 -1.390625,0.640625 -1.5625,0.875 -0.046875,-0.578125 -0.46875,-0.875 -0.921875,-0.875 -0.453125,0 -0.640625,0.390625 -0.734375,0.5625 -0.171875,0.359375 -0.296875,0.9375 -0.296875,0.96875 0,0.109375 0.09375,0.109375 0.109375,0.109375 0.109375,0 0.109375,-0.015625 0.171875,-0.234375 0.171875,-0.703125 0.375,-1.1875 0.734375,-1.1875 0.15625,0 0.296875,0.078125 0.296875,0.453125 0,0.21875 -0.03125,0.328125 -0.15625,0.84375 z m 0,0"
               id="path41100" />
          </symbol>
          <symbol
             overflow="visible"
             id="symbol41106">
            <path
               style="stroke:none;stroke-width:0"
               d=""
               id="path41104" />
          </symbol>
          <symbol
             overflow="visible"
             id="symbol41110">
            <path
               style="stroke:none;stroke-width:0"
               d="M 3,-1.59375 C 3,-1.953125 3,-3.3125 1.6875,-3.3125 c -1.296875,0 -1.296875,1.359375 -1.296875,1.71875 0,0.359375 0,1.703125 1.296875,1.703125 C 3,0.109375 3,-1.234375 3,-1.59375 Z M 1.6875,-0.0625 C 1.515625,-0.0625 1.09375,-0.125 0.96875,-0.625 0.890625,-0.890625 0.890625,-1.25 0.890625,-1.65625 c 0,-0.375 0,-0.71875 0.078125,-1 0.125,-0.421875 0.515625,-0.5 0.71875,-0.5 0.375,0 0.640625,0.1875 0.734375,0.546875 C 2.5,-2.359375 2.5,-1.953125 2.5,-1.65625 c 0,0.34375 0,0.75 -0.078125,1.046875 C 2.296875,-0.125 1.890625,-0.0625 1.6875,-0.0625 Z m 0,0"
               id="path41108" />
          </symbol>
        </g>
      </defs>
      <text
         xml:space="preserve"
         style="font-size:3.32428px;font-family:sans-serif;-inkscape-font-specification:'sans-serif, Normal';fill:#000000;fill-opacity:1;stroke:none;stroke-width:0.0999528;stroke-dasharray:none;stroke-opacity:1"
         x="-6.8314977"
         y="5.5349965"
         id="text12769"><tspan
           sodipodi:role="line"
           id="tspan12767"
           style="fill:#000000;fill-opacity:1;stroke:none;stroke-width:0.0999528;stroke-dasharray:none;stroke-opacity:1"
           x="-6.8314977"
           y="5.5349965">$\ket{\m{1}{1},\m{2}{1}}$</tspan></text>
      <text
         xml:space="preserve"
         style="font-size:3.32428px;font-family:sans-serif;-inkscape-font-specification:'sans-serif, Normal';fill:#000000;fill-opacity:1;stroke:none;stroke-width:0.0999528;stroke-dasharray:none;stroke-opacity:1"
         x="-6.8314977"
         y="22.201508"
         id="text12769-5"><tspan
           sodipodi:role="line"
           id="tspan12767-9"
           style="fill:#000000;fill-opacity:1;stroke:none;stroke-width:0.0999528;stroke-dasharray:none;stroke-opacity:1"
           x="-6.8314977"
           y="22.201508">$\ket{\m{1}{2},\m{2}{2}}$</tspan></text>
      <text
         xml:space="preserve"
         style="font-size:3.32428px;font-family:sans-serif;-inkscape-font-specification:'sans-serif, Normal';fill:#000000;fill-opacity:1;stroke:none;stroke-width:0.0999528;stroke-dasharray:none;stroke-opacity:1"
         x="-6.8314977"
         y="38.868019"
         id="text12769-0"><tspan
           sodipodi:role="line"
           id="tspan12767-93"
           style="fill:#000000;fill-opacity:1;stroke:none;stroke-width:0.0999528;stroke-dasharray:none;stroke-opacity:1"
           x="-6.8314977"
           y="38.868019">$\ket{\m{1}{3},\m{2}{3}}$</tspan></text>
      <text
         xml:space="preserve"
         style="font-size:3.32428px;font-family:sans-serif;-inkscape-font-specification:'sans-serif, Normal';fill:#000000;fill-opacity:1;stroke:none;stroke-width:0.0999528;stroke-dasharray:none;stroke-opacity:1"
         x="-6.8314977"
         y="55.534531"
         id="text12769-4"><tspan
           sodipodi:role="line"
           id="tspan12767-0"
           style="fill:#000000;fill-opacity:1;stroke:none;stroke-width:0.0999528;stroke-dasharray:none;stroke-opacity:1"
           x="-6.8314977"
           y="55.534531">$\ket{\m{1}{4},\m{2}{4}}$</tspan></text>
      <text
         xml:space="preserve"
         style="font-size:3.32428px;font-family:sans-serif;-inkscape-font-specification:'sans-serif, Normal';fill:#000000;fill-opacity:1;stroke:none;stroke-width:0.0999528;stroke-dasharray:none;stroke-opacity:1"
         x="-6.8314977"
         y="88.867554"
         id="text12769-4-4"><tspan
           sodipodi:role="line"
           id="tspan12767-0-0"
           style="fill:#000000;fill-opacity:1;stroke:none;stroke-width:0.0999528;stroke-dasharray:none;stroke-opacity:1"
           x="-6.8314977"
           y="88.867554">$\ket{\m{1}{P},\m{2}{P}}$</tspan></text>
      <text
         xml:space="preserve"
         style="font-size:3.32428px;font-family:sans-serif;-inkscape-font-specification:'sans-serif, Normal';fill:#000000;fill-opacity:1;stroke:none;stroke-width:0.0999528;stroke-dasharray:none;stroke-opacity:1"
         x="-7.0830913"
         y="105.903"
         id="text12769-4-4-7"><tspan
           sodipodi:role="line"
           id="tspan12767-0-0-1"
           style="fill:#000000;fill-opacity:1;stroke:none;stroke-width:0.0999528;stroke-dasharray:none;stroke-opacity:1"
           x="-7.0830913"
           y="105.903">$\ket{\m{1}{P+1},\m{2}{P+1}}=\ket{\m{1}{1}},\m{2}{1}$</tspan></text>
      <text
         xml:space="preserve"
         style="font-size:14.2855px;font-family:sans-serif;-inkscape-font-specification:'sans-serif, Normal';fill:#000000;stroke:#000000;stroke-width:0.429529"
         x="29.371576"
         y="54.72662"
         id="text42888"><tspan
           sodipodi:role="line"
           id="tspan42886"
           style="stroke-width:0.429529" /></text>
      <text
         xml:space="preserve"
         style="font-size:14.2855px;font-family:sans-serif;-inkscape-font-specification:'sans-serif, Normal';fill:#000000;stroke:#000000;stroke-width:0.429529"
         x="11.201149"
         y="104.98524"
         id="text42892"><tspan
           sodipodi:role="line"
           id="tspan42890"
           style="stroke-width:0.429529" /></text>
    </g>
    <path
       style="fill:none;stroke:#000000;stroke-width:1.1878;stroke-linecap:butt;stroke-linejoin:miter;stroke-dasharray:1.1878, 3.56339;stroke-dashoffset:0;stroke-opacity:1"
       d="M 244.61716,68.776628 V 79.90061"
       id="path10671" />
  </g>
</svg>
